<svg width="288" height="83" viewBox="0 0 288 83" fill="none" xmlns="http://www.w3.org/2000/svg">
<g clip-path="url(#clip0_266_130)">
<path d="M142.484 44.5403C143.692 44.5403 144.776 44.4198 145.817 44.5722C146.983 44.7422 148.141 44.7492 149.304 44.7528C152.322 44.7599 155.337 44.7528 158.355 44.7528C163.076 44.7528 167.797 44.7634 172.518 44.7422C173.19 44.7422 173.894 44.6997 174.531 44.5049C175.908 44.0869 176.956 43.2829 177.17 41.7457C177.242 41.225 177.292 40.6937 177.292 40.166C177.303 35.6855 177.324 31.2014 177.285 26.7209C177.263 24.1742 177.374 21.6276 177.084 19.0739C176.838 16.9345 176.966 14.7563 176.841 12.5921C176.705 10.2864 176.441 7.99828 176.244 5.69957C176.115 4.19425 174.767 2.5083 172.889 2.43746C171.191 2.37371 169.488 2.43038 167.786 2.46225C167.01 2.47642 166.238 2.59685 165.461 2.62164C162.743 2.71373 160.022 2.78457 157.304 2.86603C157.111 2.87312 156.918 2.90499 156.725 2.92979C154.994 3.14939 153.263 3.3619 151.51 3.37253C150.441 3.37961 149.365 3.33711 148.302 3.44691C146.514 3.62755 144.733 3.88611 142.927 3.83652C142.491 3.82589 142.055 3.90027 141.618 3.92507C140.02 4.0207 138.446 4.38906 136.833 4.31114C136.64 4.30051 136.443 4.31114 136.25 4.32885C134.462 4.48469 132.677 4.62991 130.893 4.80701C129.87 4.90972 128.847 5.10098 128.007 5.71374C126.73 6.64526 125.854 7.87077 125.285 9.36546C124.538 11.3383 124.531 13.4245 124.205 15.4576C124.008 16.6866 123.983 17.944 123.88 19.1872C123.73 20.9582 123.522 22.7256 123.443 24.5001C123.325 27.2415 123.393 29.9936 123.197 32.728C123.057 34.6512 123.014 36.571 122.986 38.4942C122.986 38.7315 122.911 38.9688 122.889 39.2061C122.832 39.7799 122.735 40.3537 122.735 40.9275C122.721 44.349 122.728 47.7705 122.728 51.192C122.728 51.5781 122.707 51.9677 122.768 52.3467C123.029 53.9937 123.808 55.2404 125.539 55.7009C126.054 55.839 126.569 55.9984 127.095 56.0905C129.487 56.4978 131.88 56.9264 134.283 57.2593C136.254 57.532 138.217 57.9004 140.223 57.8296C140.367 57.826 140.517 57.8402 140.66 57.8685C142.287 58.1731 143.918 58.3467 145.577 58.3538C146.521 58.3573 147.491 58.4352 148.499 58.7788C148.374 59.2959 148.263 59.7493 148.138 60.277C147.043 60.1849 146.035 60.1035 145.03 60.0185C144.74 59.9937 144.451 59.9689 144.161 59.9264C139.884 59.3065 135.61 58.6832 131.336 58.0704C130.714 57.9819 130.085 57.8685 129.459 57.8721C127.953 57.8827 126.759 58.4742 125.9 59.7634C125.228 60.7729 124.92 61.8603 124.906 63.0326C124.881 65.1047 124.867 67.1767 124.91 69.2487C124.931 70.3042 125.064 71.3597 125.192 72.4081C125.31 73.3609 125.421 74.3207 125.65 75.2487C126.086 77.0268 127.002 77.7387 128.862 77.8095C130.51 77.8697 132.155 77.8875 133.808 78.015C136.222 78.2027 138.653 78.1141 141.085 78.2664C145.059 78.5144 149.057 78.0539 153.034 78.564C157.851 78.4081 162.658 78.8296 167.475 78.7836C168.011 78.78 168.559 78.7269 169.077 78.8261C170.286 79.0563 171.502 79.0067 172.714 79.0102C174.467 79.0173 176.219 79.0138 177.971 79.0102C178.408 79.0102 178.848 78.9961 179.284 78.9571C180.711 78.8261 181.573 78.0043 182.03 76.708C182.141 76.3892 182.242 76.0598 182.277 75.7269C182.46 74.1047 183 72.525 182.849 70.8638C182.835 70.7221 182.871 70.5769 182.9 70.4353C183.375 68.0657 183.254 65.643 183.482 63.2522C183.661 61.3927 183.912 59.5226 183.783 57.6383C183.769 57.4506 183.801 57.2522 183.84 57.0645C184.216 55.3927 183.976 53.7032 184.012 52.0208C184.019 51.6914 183.901 51.3585 183.826 51.0291C183.579 49.9523 182.878 49.2262 181.88 48.8543C181.161 48.5851 180.378 48.4116 179.613 48.3514C178.014 48.2239 176.409 48.2026 174.81 48.1318C174.424 48.1141 174.037 48.0716 173.651 48.0397C173.022 47.9866 172.396 47.9157 171.767 47.8874C169.682 47.7918 167.597 47.7174 165.512 47.6288C165.318 47.6217 165.129 47.5686 164.936 47.5474C164.31 47.4871 163.684 47.4021 163.055 47.3809C162.035 47.349 160.995 47.4694 159.993 47.3171C158.827 47.14 157.669 47.1577 156.503 47.133C156.067 47.1259 155.623 47.133 155.19 47.0798C152.969 46.8106 150.745 46.6265 148.503 46.6796C147.923 46.6938 147.344 46.5981 146.765 46.5415C145.559 46.4281 144.351 46.3112 143.145 46.1873C142.874 46.1589 142.609 46.0881 142.28 46.0243C142.351 45.5249 142.412 45.107 142.494 44.5226L142.484 44.5403ZM210.366 31.1483C210.094 30.4257 210.187 29.7598 210.269 29.094C210.33 28.6158 210.405 28.1376 210.405 27.6595C210.416 21.3478 210.416 15.0361 210.401 8.72083C210.401 8.19662 210.298 7.66888 210.187 7.1553C210.001 6.29107 209.439 5.72082 208.638 5.35954C207.83 4.99473 206.993 4.79284 206.095 4.79992C203.86 4.81763 201.622 4.73617 199.401 5.07973C197.723 5.33829 196.035 5.54727 194.365 5.84833C192.72 6.14585 191.901 6.98883 191.622 8.60749C191.515 9.22024 191.483 9.85424 191.493 10.4741C191.608 18.323 191.415 26.1719 191.651 34.0243C191.887 42.0149 191.704 50.0196 191.704 58.0208C191.704 58.5025 191.636 59.0019 191.74 59.4624C192.023 60.7056 191.937 61.9559 191.94 63.2027C191.951 66.6241 191.94 70.0456 191.944 73.4671C191.944 73.8532 191.93 74.2393 191.965 74.6218C192.073 75.7304 192.552 76.6265 193.482 77.2995C194.655 78.146 195.96 78.6135 197.387 78.7729C199.029 78.9571 200.677 79.0067 202.333 79.0563C204.468 79.12 206.6 79.3149 208.738 79.2723C208.978 79.2688 209.225 79.3184 209.454 79.3892C210.262 79.6265 211.02 79.3892 211.717 79.0669C212.633 78.6454 213.305 77.9441 213.448 76.8922C213.52 76.3715 213.559 75.8402 213.57 75.3125C213.595 73.917 213.506 72.5214 213.82 71.1436C214.081 70.0067 214.056 68.8485 214.046 67.6903C214.042 67.159 213.985 66.6171 214.074 66.1035C214.478 63.7658 214.074 61.3821 214.5 59.048C214.357 57.022 214.822 55.0244 214.818 53.0055C214.818 52.9275 214.907 52.8461 215.004 52.6902C216.202 52.5733 217.45 52.5804 218.688 52.6902C219.027 53.3526 219.11 54.0114 219.106 54.6879C219.106 55.7009 219.099 56.7103 219.11 57.7233C219.113 58.1554 219.149 58.5875 219.185 59.0196C219.242 59.6891 219.353 60.3549 219.367 61.0244C219.396 62.3738 219.371 63.7233 219.378 65.0728C219.378 65.4589 219.403 65.8414 219.435 66.2275C219.489 66.9465 219.585 67.6584 219.614 68.3774C219.703 70.8284 219.768 73.283 219.85 75.734C219.861 76.0704 219.911 76.4069 219.989 76.7328C220.254 77.852 220.962 78.5958 222.039 78.9925C222.353 79.1094 222.697 79.159 223.029 79.2298C225.508 79.7611 228.04 79.7788 230.55 79.9701C232.532 80.1189 234.516 80.3916 236.516 80.2641C236.705 80.2535 236.902 80.3137 237.095 80.3208C238.697 80.3597 240.299 80.4058 241.905 80.4235C242.238 80.4235 242.588 80.3562 242.906 80.2499C244.087 79.8532 244.956 79.1484 245.142 77.845C245.224 77.2747 245.303 76.6974 245.303 76.1271C245.317 72.3691 245.313 68.6112 245.306 64.8496C245.306 64.4175 245.26 63.9854 245.227 63.5533C245.17 62.7882 245.056 62.0197 245.056 61.2546C245.041 54.5568 245.049 47.8591 245.045 41.1613C245.045 40.6335 245.013 40.1022 244.977 39.5745C244.931 38.9051 244.82 38.2357 244.816 37.5662C244.802 33.3726 244.809 29.1825 244.805 24.9889C244.805 24.5072 244.78 24.0255 244.748 23.5473C244.695 22.7823 244.573 22.0172 244.569 21.2521C244.552 16.8672 244.562 12.4823 244.559 8.09745C244.559 7.66534 244.566 7.22968 244.534 6.79756C244.466 5.84479 244.079 5.04786 243.361 4.38906C242.738 3.82235 242.059 3.36544 241.247 3.15647C239.133 2.61456 237.048 1.91326 234.824 1.94513C234.677 1.94513 234.524 1.94513 234.391 1.90617C233.49 1.62636 232.56 1.70782 231.641 1.67949C231.108 1.66532 230.579 1.56969 230.05 1.54844C229.227 1.51656 228.404 1.48468 227.582 1.50948C226.856 1.53073 226.134 1.6299 225.411 1.68303C225.071 1.70782 224.714 1.64407 224.395 1.73262C223.441 1.99826 222.468 1.96284 221.495 1.94513C220.551 1.92742 219.657 2.15411 218.795 2.48705C217.729 2.89791 217.014 3.65588 216.835 4.81055C216.753 5.33121 216.746 5.8625 216.728 6.39379C216.638 8.94043 216.556 11.4871 216.467 14.0337C216.46 14.225 216.417 14.4162 216.399 14.6075C216.334 15.323 216.238 16.0384 216.216 16.7574C216.181 18.0077 216.288 19.2722 216.148 20.5119C216.023 21.6205 215.988 22.7185 215.984 23.8236C215.977 25.1235 215.991 26.4269 215.98 27.7268C215.97 28.7787 215.816 29.813 215.616 30.9393C214.697 30.9464 213.824 30.9358 212.955 30.9676C212.093 31.0031 211.231 31.0845 210.362 31.1447L210.366 31.1483ZM38.5955 47.774C39.0533 47.7103 39.3323 47.6465 39.6112 47.6324C41.6962 47.5438 43.7812 47.4659 45.8697 47.3844C46.0629 47.3774 46.2631 47.3844 46.4527 47.3419C48.2695 46.9594 50.1327 47.1755 51.9566 46.885C52.9616 46.7256 53.9844 46.6725 54.9893 46.5202C56.0443 46.3608 56.7274 45.7126 57.1065 44.7422C57.4069 43.9736 57.575 43.1766 57.575 42.3478C57.575 41.5792 57.5929 40.8071 57.6322 40.0385C57.6787 39.1282 57.7967 38.2179 57.8182 37.3077C57.8504 35.9122 57.8361 34.5131 57.8182 33.114C57.8146 32.6359 57.7538 32.1542 57.7145 31.676C57.668 31.0526 57.5893 30.4293 57.5714 29.8059C57.4677 26.3915 57.7252 22.9735 57.3604 19.5556C57.1637 17.6996 57.4677 15.8011 57.0636 13.9452C57.2209 11.6323 56.7989 9.33712 56.8168 7.02779C56.824 6.29461 56.6952 5.58623 56.4377 4.90618C56.073 3.94278 55.4399 3.25564 54.3778 3.0573C53.1368 2.82707 51.903 2.52247 50.6477 2.41621C48.1836 2.20015 45.7088 2.10098 43.2376 1.94513C42.9479 1.92742 42.6618 1.8495 42.3757 1.81762C41.943 1.76804 41.5067 1.72553 41.0739 1.68657C40.2549 1.61219 39.4324 1.55198 38.6134 1.47406C37.2115 1.34301 35.8203 1.08445 34.4041 1.17654C34.0179 1.20133 33.6245 1.18716 33.2382 1.14466C31.2069 0.92506 29.1827 0.691293 27.1335 0.762132C26.8438 0.772758 26.5505 0.74088 26.2609 0.716087C24.5728 0.563784 22.8848 0.333559 21.1932 0.273347C18.2857 0.177715 15.3674 0.167089 12.4492 0.142296C10.307 0.121044 8.16832 0.138754 6.02611 0.138754C5.68636 0.138754 5.34304 0.121044 5.00329 0.14938C4.61705 0.181257 4.22008 0.209592 3.85172 0.312308C2.48557 0.701919 1.52354 1.51656 1.28035 2.96166C1.1516 3.71964 1.13372 4.49177 1.04432 5.25683C0.854771 6.83298 0.575819 8.39851 0.636616 9.99592C0.650921 10.3289 0.590124 10.6653 0.554361 11.0018C0.414885 12.3867 0.186001 13.7681 0.146662 15.1565C0.053678 18.3796 0.0357965 21.6063 0.0107623 24.8366C-0.00711922 27.0999 0.0036097 29.3667 0.0107623 31.6335C0.0107623 32.2108 0.053678 32.7882 0.0894411 33.3655C0.189578 34.9948 0.110899 36.6276 0.33263 38.264C0.475682 39.3018 0.450648 40.3714 0.675955 41.4128C0.776092 41.8838 0.79755 42.3691 0.897687 42.8366C1.19094 44.2498 1.47705 45.6666 1.8168 47.0692C2.05283 48.0432 2.72876 48.6489 3.71224 48.8579C4.2773 48.9783 4.86381 49.0704 5.4396 49.0633C7.42802 49.0421 9.41287 49.0704 11.4085 48.872C13.4291 48.6702 15.489 48.8508 17.5311 48.872C17.6098 48.872 17.6884 48.9606 17.853 49.0598C17.8708 49.4777 17.9102 49.9488 17.9102 50.4199C17.9173 53.4553 17.9102 56.4907 17.9173 59.5297C17.9173 59.9618 17.8744 60.4152 17.9853 60.8225C18.2142 61.6796 18.1748 62.5403 18.1856 63.4081C18.1999 64.5627 18.1248 65.7316 18.2607 66.8721C18.3644 67.7363 18.4252 68.5935 18.4287 69.4577C18.4287 70.035 18.3894 70.6194 18.4395 71.1932C18.5682 72.6773 18.5933 74.1968 19.4838 75.4931C20.199 76.5415 21.0251 77.5439 22.2411 77.9902C23.2782 78.3692 24.3869 78.5498 25.5206 78.61C27.8952 78.734 30.2627 78.9642 32.6338 79.1519C32.827 79.1661 33.0201 79.2405 33.2096 79.2334C33.7926 79.2192 34.3791 79.2263 34.9513 79.1342C36.1172 78.95 36.8503 78.2381 37.2365 77.1472C37.4976 76.4105 37.5942 75.6525 37.5942 74.8733C37.5942 74.1507 37.6228 73.4317 37.6657 72.7092C37.7086 71.9902 37.8231 71.2747 37.8374 70.5557C37.866 69.1602 37.8445 67.7611 37.8481 66.362C37.8481 66.0256 37.8016 65.6714 37.8874 65.3526C38.1664 64.3077 38.0877 63.2452 38.0949 62.1897C38.102 60.7906 38.0949 59.3951 38.0949 57.996C38.0949 57.6595 38.0448 57.3089 38.1199 56.9866C38.4453 55.6052 38.3023 54.2062 38.3416 52.8142C38.3559 52.2865 38.3845 51.7552 38.4239 51.2274C38.4739 50.558 38.5526 49.8886 38.5955 49.2191C38.6206 48.7906 38.5991 48.3585 38.5991 47.767L38.5955 47.774ZM278.873 28.931C279.149 28.8992 279.428 28.8283 279.707 28.8389C281.266 28.8885 282.811 28.7256 284.359 28.5981C286.462 28.4245 287.639 27.1247 287.775 25.4741C287.878 24.2274 288 22.9806 288 21.7338C288 20.0054 287.871 18.2734 287.828 16.5449C287.785 14.8625 287.9 13.173 287.635 11.4977C287.507 10.6901 287.446 9.87195 287.381 9.05731C287.285 7.86014 287.26 6.65589 287.113 5.4658C286.891 3.65234 286.004 2.29933 284.166 1.71491C283.565 1.52364 282.965 1.31467 282.346 1.21904C280.762 0.971105 279.174 0.737338 277.561 0.779841C277.221 0.790467 276.863 0.822344 276.545 0.737338C275.49 0.450443 274.421 0.524823 273.352 0.521281C271.356 0.514197 269.36 0.517739 267.365 0.521281C266.975 0.521281 266.578 0.496488 266.199 0.560242C263.939 0.949854 261.639 0.716087 259.372 0.995899C258.313 1.12695 257.237 1.12695 256.178 1.258C255.459 1.35009 254.748 1.54135 254.047 1.7397C252.773 2.09744 251.908 2.85187 251.726 4.22613C251.693 4.46344 251.59 4.69721 251.59 4.93451C251.579 6.52484 251.479 8.12579 251.629 9.70194C251.736 10.807 251.797 11.905 251.808 13.0101C251.815 13.637 251.718 14.2816 251.836 14.8873C252.233 16.9452 252.015 19.0172 252.08 21.0821C252.09 21.4186 252.069 21.7622 252.126 22.0916C252.398 23.7102 252.562 25.3324 252.53 26.9759C252.505 28.1306 252.92 29.1471 253.557 30.0822C254.061 30.8224 254.73 31.3289 255.634 31.5698C256.493 31.7964 257.344 31.9027 258.227 31.9027C258.846 31.9027 259.486 31.7929 260.176 32.0833C260.198 32.5544 260.237 33.0219 260.237 33.493C260.244 35.9972 260.237 38.5013 260.237 41.0054C260.237 44.6182 260.241 48.2345 260.234 51.8473C260.234 52.3112 260.344 52.8036 260.033 53.3101C259.611 53.3349 259.182 53.3774 258.753 53.3844C257.877 53.3986 257.001 53.3738 256.124 53.4057C255.112 53.4447 254.258 53.7953 253.567 54.5922C253.017 55.2262 252.555 55.8673 252.348 56.6891C252.03 57.9464 251.572 59.1755 251.343 60.447C251.143 61.5769 251.239 62.7564 251.085 63.8969C250.932 65.048 250.924 66.1991 250.871 67.3502C250.764 69.5214 251.085 71.6749 251.121 73.839C251.139 74.8945 251.232 75.9571 251.386 77.002C251.65 78.7836 252.702 79.8461 254.479 80.1755C255.241 80.3172 256.017 80.3881 256.79 80.4624C257.852 80.5651 258.939 80.5333 259.976 80.7493C262.043 81.1779 264.16 80.7281 266.213 81.2098C269.854 81.1035 273.502 81.3975 277.142 80.9973C278.695 80.8272 280.214 80.5616 281.734 80.2428C283.53 79.8638 284.517 78.7198 284.806 76.9913C285.264 74.2889 285.693 71.5793 285.697 68.8308C285.697 68.5403 285.661 68.2428 285.726 67.9665C286.062 66.5391 285.876 65.087 285.947 63.6489C286.001 62.5757 285.793 61.5415 285.622 60.4966C285.364 58.9098 284.134 57.8437 282.689 57.7162C281.624 57.6241 280.561 57.525 279.496 57.447C279.016 57.4116 278.523 57.4647 278.058 57.0574C278.044 56.5757 278.004 56.0515 278.011 55.5273C278.069 51.8189 278.14 48.1141 278.205 44.4057C278.212 43.9736 278.14 43.5202 278.233 43.1093C278.566 41.6288 278.498 40.1306 278.444 38.6465C278.33 35.5615 278.727 32.4942 278.727 29.4163C278.727 29.2817 278.805 29.1506 278.87 28.9487L278.873 28.931ZM88.1202 82.5592C89.9012 82.5026 91.6966 82.4353 93.4954 82.3857C95.0511 82.3432 96.5889 82.1626 98.116 81.8686C99.6431 81.5746 101.156 81.1992 102.69 80.976C104.067 80.7777 105.151 80.1543 106.095 79.198C106.978 78.3019 107.854 77.3951 108.784 76.5451C109.596 75.8013 110.104 74.891 110.479 73.8886C110.633 73.4813 110.765 73.0704 110.941 72.6737C111.989 70.2865 112.818 67.8213 113.516 65.3172C114.653 61.2333 115.529 57.0928 116.158 52.8992C116.323 51.8047 116.555 50.7209 116.673 49.6229C116.877 47.7174 117.26 45.8331 117.328 43.9027C117.374 42.5143 117.686 41.1365 117.646 39.7374C117.636 39.3514 117.6 38.9547 117.675 38.5828C117.986 37.0527 117.861 35.5084 117.889 33.9712C117.904 33.2982 117.904 32.6217 117.939 31.9487C117.986 31.0845 118.1 30.2238 118.118 29.3631C118.151 27.9676 118.129 26.5686 118.125 25.1695C118.125 24.7834 118.1 24.4009 118.075 24.0148C118.018 23.1542 117.914 22.2935 117.897 21.4292C117.864 19.7929 117.961 18.1494 117.857 16.5166C117.718 14.31 117.385 12.1175 117.235 9.91446C117.156 8.71374 116.77 7.71138 116.105 6.70902C115.107 5.20724 113.791 4.29697 112.031 3.92861C108.466 3.17772 104.882 2.51892 101.249 2.20015C100.33 2.11869 99.4142 2.01597 98.4951 1.95576C96.7999 1.84596 95.1084 1.75741 93.4132 1.66178C93.3166 1.6547 93.2201 1.6299 93.1235 1.62282C92.4476 1.56261 91.7752 1.45989 91.0993 1.45281C89.3469 1.42801 87.5945 1.44218 85.8457 1.44572C85.4559 1.44572 85.0661 1.44572 84.6798 1.48823C83.3316 1.6299 81.9869 1.85304 80.635 1.92742C79.2295 2.0018 77.8205 1.95576 76.4221 2.18244C75.1275 2.38787 73.815 2.48705 72.5275 2.71727C70.9504 3.00063 69.3875 3.35836 67.8211 3.70547C66.759 3.93923 65.8077 4.39968 65.0245 5.16828C64.4022 5.77749 63.7692 6.37962 63.1648 7.003C62.0919 8.10453 61.3444 9.369 61.205 10.9345C61.1012 12.0821 60.9403 13.2262 60.8294 14.3737C60.7508 15.1884 60.7257 16.0066 60.6614 16.8212C60.529 18.4469 60.2858 20.0727 60.2644 21.702C60.2107 26.4729 60.2429 31.2439 60.2465 36.0113C60.2465 36.3974 60.2572 36.7835 60.2894 37.166C60.4361 39.0326 60.5934 40.8992 60.7472 42.7622C60.9153 44.8236 60.9761 46.8992 61.2908 48.9393C61.5912 50.8874 61.6055 52.8709 62.1205 54.787C62.1563 54.9252 62.1634 55.0739 62.167 55.2156C62.1849 57.2983 62.7428 59.3101 63.0217 61.3538C63.3329 63.6383 63.8872 65.8874 64.3628 68.1472C64.699 69.7481 65.0602 71.3491 65.4572 72.9359C65.7647 74.1578 66.2046 75.3444 67.181 76.2192C67.8283 76.7965 68.5185 77.342 69.2338 77.8379C70.7895 78.9182 72.4703 79.7363 74.2406 80.4553C76.0609 81.1956 77.9421 81.6206 79.8268 82.0705C80.5778 82.2476 81.361 82.3326 82.1335 82.368C84.1255 82.4601 86.1175 82.499 88.131 82.5592H88.1202Z" fill="white"/>
<path d="M142.484 44.5403C142.402 45.1247 142.341 45.5427 142.269 46.0421C142.598 46.1058 142.863 46.1767 143.135 46.205C144.34 46.329 145.545 46.4459 146.754 46.5592C147.333 46.6123 147.916 46.7115 148.492 46.6973C150.734 46.6407 152.959 46.8248 155.18 47.0976C155.612 47.1507 156.052 47.1436 156.492 47.1507C157.658 47.1719 158.813 47.1578 159.983 47.3349C160.984 47.4872 162.021 47.3632 163.044 47.3986C163.673 47.4199 164.299 47.5049 164.925 47.5651C165.118 47.5828 165.308 47.6359 165.501 47.6466C167.586 47.7351 169.671 47.813 171.756 47.9051C172.385 47.9335 173.015 48.0078 173.641 48.0574C174.027 48.0893 174.413 48.1318 174.799 48.1495C176.401 48.2204 178.007 48.2416 179.602 48.3691C180.368 48.4293 181.151 48.6029 181.87 48.8721C182.867 49.2475 183.568 49.9736 183.815 51.0468C183.89 51.3762 184.008 51.7091 184.001 52.0385C183.965 53.721 184.201 55.4105 183.829 57.0822C183.787 57.27 183.758 57.4683 183.772 57.656C183.901 59.5403 183.651 61.4105 183.472 63.27C183.243 65.6643 183.365 68.0834 182.889 70.453C182.86 70.5947 182.825 70.7434 182.839 70.8816C182.989 72.5427 182.449 74.1224 182.267 75.7446C182.231 76.0776 182.131 76.407 182.02 76.7257C181.566 78.0185 180.7 78.8438 179.273 78.9749C178.837 79.0138 178.401 79.028 177.961 79.028C176.208 79.0351 174.456 79.0351 172.704 79.028C171.488 79.0244 170.275 79.0705 169.066 78.8438C168.548 78.7446 168.001 78.7978 167.464 78.8013C162.651 78.8473 157.84 78.4259 153.023 78.5817C149.05 78.0681 145.052 78.5286 141.075 78.2842C138.646 78.1319 136.215 78.2204 133.797 78.0327C132.145 77.9052 130.5 77.8875 128.851 77.8273C126.991 77.7564 126.076 77.0445 125.639 75.2665C125.41 74.3385 125.296 73.3751 125.182 72.4258C125.053 71.3774 124.921 70.3219 124.899 69.2664C124.856 67.1944 124.867 65.1224 124.896 63.0504C124.91 61.878 125.221 60.7906 125.89 59.7812C126.748 58.4919 127.939 57.8969 129.448 57.8898C130.074 57.8863 130.703 57.9961 131.326 58.0881C135.603 58.7044 139.877 59.3278 144.15 59.9441C144.436 59.9866 144.73 60.0114 145.019 60.0362C146.024 60.1212 147.033 60.2027 148.127 60.2948C148.256 59.767 148.363 59.3137 148.488 58.7965C147.48 58.453 146.514 58.375 145.567 58.3715C143.907 58.3644 142.273 58.1909 140.649 57.8863C140.506 57.8579 140.359 57.8438 140.213 57.8473C138.207 57.9146 136.243 57.5498 134.273 57.277C131.869 56.9441 129.477 56.5155 127.084 56.1082C126.558 56.0197 126.047 55.8567 125.529 55.7186C123.798 55.2546 123.018 54.0114 122.757 52.3644C122.696 51.9854 122.718 51.5958 122.718 51.2097C122.718 47.7882 122.71 44.3667 122.725 40.9452C122.725 40.3715 122.821 39.7977 122.878 39.2239C122.904 38.9866 122.971 38.7493 122.975 38.5119C123.004 36.5887 123.047 34.669 123.186 32.7457C123.383 30.0113 123.315 27.2593 123.433 24.5178C123.508 22.7433 123.719 20.9759 123.869 19.2049C123.973 17.9617 123.998 16.7043 124.195 15.4753C124.52 13.4422 124.527 11.356 125.275 9.38319C125.84 7.88849 126.719 6.66299 127.996 5.73146C128.837 5.11871 129.863 4.92745 130.882 4.82473C132.667 4.64764 134.455 4.50242 136.24 4.34657C136.433 4.32886 136.629 4.31824 136.822 4.32886C138.435 4.40679 140.009 4.03843 141.608 3.94279C142.044 3.918 142.48 3.84362 142.917 3.85425C144.723 3.90383 146.504 3.64173 148.292 3.46463C149.354 3.35838 150.43 3.39734 151.5 3.39025C153.248 3.37963 154.983 3.16711 156.714 2.94751C156.907 2.92272 157.1 2.89084 157.293 2.88376C160.011 2.8023 162.733 2.73146 165.451 2.63937C166.227 2.61457 166.999 2.49415 167.775 2.47998C169.478 2.44456 171.18 2.38789 172.879 2.45519C174.756 2.52603 176.105 4.21198 176.233 5.7173C176.427 8.016 176.695 10.3005 176.831 12.6099C176.956 14.774 176.831 16.9523 177.074 19.0916C177.367 21.6453 177.253 24.1884 177.274 26.7386C177.313 31.2191 177.288 35.7032 177.281 40.1837C177.281 40.7115 177.231 41.2392 177.16 41.7634C176.945 43.2971 175.897 44.1046 174.52 44.5226C173.884 44.7139 173.179 44.7564 172.507 44.7599C167.786 44.7776 163.065 44.7705 158.345 44.7705C155.326 44.7705 152.311 44.7741 149.293 44.7705C148.127 44.7705 146.972 44.7599 145.806 44.5899C144.762 44.4376 143.678 44.558 142.473 44.558L142.484 44.5403ZM160.051 41.5899C163.992 41.5899 167.933 41.5899 171.874 41.5899C172.31 41.5899 172.75 41.5934 173.186 41.5509C173.734 41.4978 173.987 41.2534 174.041 40.7363C174.08 40.3537 174.073 39.9677 174.073 39.5816C174.073 33.702 174.073 27.8224 174.073 21.9428C174.073 21.5568 174.12 21.1565 174.038 20.7882C173.734 19.4529 173.859 18.0999 173.83 16.7575C173.812 15.9889 173.809 15.2167 173.769 14.4481C173.726 13.5839 173.63 12.7232 173.591 11.859C173.508 10.0845 173.462 8.30644 173.151 6.54965C173.033 5.88377 172.779 5.59333 172.106 5.57916C170.844 5.55437 169.564 5.48353 168.315 5.63229C167.443 5.73855 166.581 5.79876 165.708 5.80939C164.686 5.82355 163.648 5.72438 162.647 5.87314C161.481 6.04669 160.322 6.03253 159.157 6.06086C158.284 6.08566 157.408 6.1317 156.535 6.18837C155.323 6.26629 154.11 6.38318 152.898 6.44339C151.253 6.52131 149.611 6.39735 147.959 6.6807C146.296 6.96405 144.59 7.10219 142.884 6.99947C142.548 6.97822 142.208 7.03843 141.872 7.08448C140.431 7.27928 138.99 7.50243 137.527 7.4918C137.041 7.48826 136.558 7.5343 136.071 7.56972C134.623 7.67598 133.175 7.81057 131.723 7.88495C130.353 7.95579 129.291 8.46583 128.676 9.73384C128.55 9.9924 128.45 10.2651 128.314 10.5201C127.71 11.6642 127.86 12.9605 127.542 14.1648C127.395 14.7173 127.292 15.3017 127.284 15.872C127.252 18.2805 126.784 20.6607 126.873 23.0727C126.88 23.31 126.82 23.5509 126.791 23.7882C126.737 24.2628 126.651 24.741 126.634 25.2156C126.562 27.0397 126.673 28.8567 126.401 30.6843C126.169 32.2392 126.305 33.8366 126.126 35.4234C125.904 37.3785 125.958 39.3655 125.943 41.3384C125.918 44.4695 125.936 47.6041 125.94 50.7351C125.94 51.1212 125.958 51.5073 125.993 51.8898C126.036 52.3148 126.29 52.5982 126.691 52.7292C127.059 52.8496 127.428 52.9842 127.81 53.0444C129.82 53.3774 131.834 53.6855 133.843 54.0079C134.798 54.1602 135.746 54.362 136.708 54.4683C137.96 54.61 139.215 54.6808 140.47 54.7835C141.1 54.8331 141.729 54.8756 142.359 54.9323C144.147 55.0881 145.931 55.3184 147.723 55.3821C148.8 55.4175 149.844 55.6123 150.902 55.7151C151.514 55.7753 151.746 56.0338 151.768 56.6643C151.789 57.2877 151.789 57.9217 151.711 58.538C151.543 59.8697 151.324 61.198 151.106 62.5262C150.999 63.1743 150.473 63.6419 149.797 63.6738C149.315 63.695 148.821 63.6844 148.342 63.6242C145.989 63.3302 143.635 63.0256 141.286 62.7104C139.365 62.4518 137.445 62.1791 135.524 61.8993C133.747 61.6372 131.977 61.3361 130.199 61.0882C129.037 60.9252 128.354 61.4353 128.121 62.597C128.064 62.8768 128.075 63.1743 128.075 63.4612C128.068 64.4246 128.089 65.388 128.068 66.3515C128.025 68.1826 128.114 70.0067 128.357 71.8202C128.447 72.4861 128.515 73.159 128.601 73.8249C128.694 74.5227 128.908 74.7068 129.648 74.7493C129.698 74.7493 129.745 74.7493 129.795 74.7493C131.297 74.7706 132.81 74.6466 134.294 75.0044C134.434 75.0362 134.584 75.015 134.73 75.015C139.108 75.061 143.485 75.1106 147.863 75.1531C148.789 75.1637 149.712 75.1531 150.638 75.1567C151.028 75.1567 151.417 75.1779 151.804 75.1992C152.869 75.2629 153.935 75.3656 155.001 75.3869C156.753 75.4188 158.506 75.3869 160.254 75.4011C160.741 75.4011 161.224 75.44 161.71 75.4754C162.386 75.525 163.058 75.6207 163.734 75.649C166.159 75.7482 168.577 75.61 171.012 75.8615C173.322 76.0988 175.679 75.9253 178.014 75.9111C178.798 75.9076 178.912 75.7623 179.102 75.0327C179.624 73.0173 179.545 70.9312 179.871 68.8945C179.974 68.2322 180.103 67.5699 180.135 66.9004C180.2 65.5085 180.192 64.1236 180.371 62.7316C180.575 61.1165 180.504 59.466 180.554 57.8296C180.564 57.4435 180.543 57.0504 180.625 56.6785C180.911 55.3892 180.772 54.0858 180.779 52.7894C180.779 51.9783 180.486 51.6454 179.667 51.5639C178.318 51.4258 176.963 51.3337 175.608 51.2593C173.48 51.1424 171.348 51.061 169.217 50.9618C169.074 50.9547 168.931 50.9158 168.784 50.9016C168.208 50.8378 167.632 50.7387 167.053 50.7245C164.818 50.6607 162.572 50.7316 160.347 50.5439C158.695 50.4057 157.05 50.3597 155.398 50.3278C155.251 50.3278 155.108 50.3065 154.962 50.2888C153.713 50.1365 152.469 49.9099 151.217 49.8426C149.186 49.7363 147.151 49.8496 145.116 49.5698C143.678 49.3715 142.205 49.4459 140.749 49.3821C139.058 49.3113 138.532 48.7481 138.775 47.1153C138.979 45.741 139.308 44.3915 139.319 42.9819C139.326 42.1601 139.848 41.6713 140.653 41.4765C140.889 41.4199 141.132 41.3809 141.375 41.3809C142.834 41.3774 144.308 41.2711 145.749 41.4163C147.401 41.5863 149.05 41.5828 150.702 41.5863C153.817 41.597 156.932 41.5863 160.043 41.5863L160.051 41.5899Z" fill="#0025FF"/>
<path d="M210.366 31.1485C211.235 31.0883 212.093 31.0033 212.958 30.9714C213.827 30.936 214.696 30.9501 215.619 30.943C215.819 29.8203 215.973 28.7825 215.984 27.7305C215.995 26.4306 215.984 25.1272 215.987 23.8273C215.991 22.7223 216.027 21.6207 216.152 20.5156C216.291 19.276 216.181 18.015 216.22 16.7612C216.241 16.0422 216.338 15.3267 216.402 14.6113C216.42 14.42 216.463 14.2287 216.47 14.0375C216.56 11.4908 216.642 8.94418 216.731 6.39754C216.749 5.86979 216.76 5.33496 216.839 4.8143C217.017 3.65963 217.733 2.90166 218.798 2.4908C219.66 2.15786 220.554 1.93118 221.499 1.94888C222.468 1.96659 223.441 1.99847 224.399 1.73637C224.717 1.64782 225.075 1.71158 225.415 1.68678C226.141 1.63365 226.863 1.53448 227.585 1.51323C228.408 1.49198 229.231 1.52031 230.053 1.55219C230.586 1.57344 231.115 1.66553 231.645 1.68324C232.567 1.71158 233.493 1.63011 234.395 1.90992C234.531 1.95243 234.684 1.95243 234.827 1.94888C237.052 1.91701 239.137 2.61831 241.251 3.16022C242.062 3.3692 242.745 3.8261 243.364 4.39281C244.087 5.04807 244.469 5.84854 244.537 6.80132C244.569 7.23343 244.562 7.66909 244.562 8.1012C244.562 12.4861 244.555 16.871 244.573 21.2559C244.573 22.021 244.698 22.786 244.752 23.5511C244.784 24.0292 244.809 24.5109 244.809 24.9926C244.813 29.1863 244.805 33.3763 244.82 37.57C244.82 38.2394 244.934 38.9088 244.981 39.5783C245.016 40.106 245.049 40.6337 245.049 41.165C245.052 47.8628 245.049 54.5606 245.059 61.2584C245.059 62.0234 245.174 62.7885 245.231 63.5571C245.263 63.9892 245.306 64.4213 245.31 64.8534C245.317 68.6114 245.32 72.3694 245.306 76.1309C245.306 76.7047 245.224 77.282 245.145 77.8487C244.959 79.1521 244.09 79.8605 242.91 80.2537C242.592 80.3599 242.241 80.4308 241.909 80.4272C240.306 80.4095 238.704 80.367 237.098 80.3245C236.905 80.321 236.709 80.2572 236.519 80.2678C234.52 80.3954 232.535 80.1262 230.554 79.9739C228.043 79.7861 225.511 79.7649 223.033 79.2336C222.7 79.1628 222.357 79.1132 222.042 78.9963C220.966 78.6031 220.258 77.8558 219.993 76.7365C219.914 76.4107 219.864 76.0707 219.853 75.7377C219.768 73.2867 219.707 70.8322 219.617 68.3812C219.592 67.6621 219.496 66.9467 219.439 66.2312C219.41 65.8487 219.385 65.4626 219.381 65.0765C219.374 63.7271 219.399 62.3776 219.371 61.0281C219.356 60.3587 219.246 59.6928 219.188 59.0234C219.153 58.5913 219.117 58.1592 219.113 57.7271C219.102 56.7141 219.106 55.7046 219.11 54.6916C219.11 54.0151 219.031 53.3563 218.691 52.694C217.45 52.5806 216.206 52.5771 215.008 52.694C214.915 52.8498 214.822 52.9278 214.822 53.0092C214.822 55.0281 214.36 57.0258 214.503 59.0517C214.078 61.3859 214.485 63.7696 214.078 66.1072C213.988 66.6244 214.046 67.1663 214.049 67.694C214.06 68.8522 214.085 70.0104 213.824 71.1474C213.509 72.5252 213.599 73.9243 213.573 75.3162C213.563 75.844 213.523 76.3717 213.452 76.8959C213.309 77.9514 212.636 78.6527 211.721 79.0707C211.027 79.3894 210.265 79.6303 209.457 79.393C209.228 79.3257 208.978 79.2726 208.742 79.2761C206.603 79.3186 204.472 79.1238 202.337 79.06C200.684 79.0105 199.032 78.9609 197.391 78.7767C195.964 78.6173 194.658 78.1498 193.485 77.3033C192.556 76.6303 192.073 75.7342 191.969 74.6256C191.933 74.243 191.948 73.857 191.948 73.4709C191.948 70.0494 191.955 66.6279 191.944 63.2064C191.94 61.9561 192.023 60.7058 191.744 59.4661C191.64 59.0057 191.708 58.5063 191.708 58.0246C191.708 50.0269 191.89 42.0222 191.654 34.0281C191.422 26.1756 191.611 18.3267 191.497 10.4778C191.486 9.85445 191.522 9.22399 191.626 8.61124C191.905 6.99258 192.724 6.1496 194.369 5.85208C196.039 5.55102 197.727 5.3385 199.404 5.08348C201.625 4.74346 203.864 4.82138 206.099 4.80367C206.997 4.79659 207.834 4.99494 208.642 5.3633C209.439 5.72457 210.004 6.29482 210.19 7.15905C210.301 7.67263 210.401 8.20392 210.405 8.72458C210.419 15.0363 210.419 21.348 210.408 27.6632C210.408 28.1414 210.33 28.6195 210.273 29.0977C210.19 29.7671 210.097 30.4295 210.369 31.152L210.366 31.1485ZM210.079 76.0742C210.459 75.511 210.355 74.9691 210.358 74.4485C210.362 73.2938 210.326 72.1321 210.609 70.9986C210.927 69.7165 210.848 68.4166 210.866 67.1202C210.877 66.4473 210.898 65.7743 210.945 65.1013C210.988 64.4319 211.102 63.766 211.124 63.1002C211.159 62.0907 211.006 61.0494 211.195 60.0718C211.41 58.9632 211.378 57.8723 211.406 56.7707C211.417 56.3386 211.342 55.8817 211.449 55.4744C211.739 54.3799 211.646 53.2749 211.667 52.1698C211.674 51.7837 211.66 51.3976 211.692 51.0151C211.753 50.3209 212.132 49.8498 212.794 49.6302C213.066 49.5381 213.366 49.4815 213.652 49.4779C215.937 49.4673 218.226 49.4708 220.512 49.4779C220.608 49.4779 220.705 49.4921 220.801 49.5063C221.62 49.6373 221.992 50.0128 222.064 50.8416C222.164 51.9891 222.282 53.1403 222.314 54.2914C222.389 56.8912 222.414 59.4909 222.468 62.0907C222.5 63.5783 222.335 65.0765 222.704 66.55C222.772 66.8227 222.729 67.1273 222.729 67.4142C222.729 68.3776 222.729 69.341 222.729 70.3044C222.729 70.8322 222.647 71.3918 222.79 71.8877C223.036 72.7448 222.986 73.6019 223.008 74.4662C223.015 74.8027 223.011 75.1391 223.036 75.4756C223.061 75.8582 223.276 76.1061 223.659 76.1698C224.281 76.269 224.907 76.3788 225.536 76.4213C227.714 76.5772 229.896 76.7047 232.077 76.8428C232.27 76.8534 232.478 76.8251 232.657 76.8782C233.705 77.1828 234.777 77.0766 235.847 77.0943C236.333 77.1049 236.848 77.0164 237.299 77.1439C238.354 77.4378 239.419 77.3599 240.485 77.3635C242.052 77.3635 242.102 77.3139 242.105 75.7165C242.112 72.1498 242.109 68.5866 242.105 65.0199C242.105 64.6338 242.08 64.2513 242.048 63.8652C241.991 63.1497 241.873 62.4343 241.859 61.7153C241.715 53.8664 241.998 46.021 241.658 38.1686C241.397 32.1083 241.508 26.0339 241.469 19.9666C241.451 17.4129 241.469 14.8592 241.469 12.3055C241.469 10.8108 241.454 9.31962 241.469 7.82493C241.479 6.9855 241.082 6.46129 240.31 6.18856C239.988 6.07522 239.666 5.96542 239.334 5.8875C238.389 5.66436 237.449 5.44122 236.498 5.24996C235.933 5.13661 235.353 5.05161 234.777 5.01619C233.225 4.92056 231.666 4.91347 230.121 4.76117C229.195 4.66908 228.29 4.5947 227.367 4.7718C226.942 4.85326 226.498 4.84972 226.062 4.86389C224.556 4.91701 223.051 4.94535 221.545 5.01619C220.154 5.08349 219.857 5.41288 219.832 6.76944C219.786 9.22399 219.728 11.6785 219.678 14.1331C219.675 14.3244 219.689 14.5227 219.646 14.7104C219.364 15.9961 219.467 17.2996 219.446 18.5995C219.431 19.3681 219.514 20.1579 219.374 20.9052C219.203 21.8191 219.195 22.7223 219.192 23.6361C219.188 25.0351 219.192 26.4306 219.192 27.8297C219.192 28.2158 219.246 28.6195 219.142 28.9808C218.87 29.9301 218.938 30.8899 218.924 31.8498C218.924 32.0906 218.931 32.3315 218.909 32.5723C218.823 33.5074 218.391 33.982 217.475 34.106C217.139 34.152 216.796 34.1379 216.456 34.1449C214.611 34.1839 212.762 34.0351 210.927 34.3645C210.408 34.4566 209.858 34.407 209.325 34.3716C207.723 34.2654 207.222 33.5109 207.108 32.3456C206.986 31.1095 207.097 29.8486 207.14 28.5983C207.161 28.0281 207.319 27.4578 207.319 26.8876C207.333 21.1532 207.329 15.4188 207.326 9.68444C207.326 9.25941 207.286 8.83084 207.261 8.33497C206.879 8.18621 206.532 7.94182 206.174 7.93119C204.862 7.88514 203.542 7.84618 202.237 7.93473C200.792 8.03036 199.347 8.21809 197.92 8.46248C196.883 8.63957 195.803 8.70333 194.751 9.20628C194.726 9.68798 194.68 10.1626 194.68 10.6337C194.676 17.4271 194.676 24.2205 194.68 31.0174C194.68 31.4495 194.705 31.8852 194.733 32.3138C194.791 33.1284 194.923 33.9395 194.923 34.7506C194.937 42.4118 194.93 50.073 194.934 57.7341C194.934 58.3575 194.977 58.9844 195.016 59.6078C195.063 60.3268 195.166 61.0458 195.17 61.7648C195.184 65.5228 195.173 69.2808 195.181 73.0388C195.181 74.792 195.417 75.0825 197.133 75.5323C197.319 75.5819 197.512 75.6279 197.702 75.6385C199.494 75.7342 201.271 76.0459 203.073 75.9361C203.553 75.9077 204.05 75.9467 204.522 76.0282C205.698 76.2265 208.617 76.2796 210.087 76.0777L210.079 76.0742Z" fill="#0025FF"/>
<path d="M38.5958 47.774C38.5958 48.3655 38.6173 48.7977 38.5923 49.2262C38.5529 49.8957 38.4707 50.5651 38.4206 51.2345C38.3813 51.7623 38.3526 52.29 38.3383 52.8213C38.299 54.2133 38.442 55.6123 38.1166 56.9937C38.0415 57.316 38.0916 57.6666 38.0916 58.0031C38.0916 59.4022 38.0987 60.7977 38.0916 62.1967C38.0844 63.2522 38.1631 64.3148 37.8841 65.3597C37.7983 65.6785 37.8448 66.0291 37.8448 66.3691C37.8448 67.7682 37.8627 69.1637 37.8341 70.5628C37.8198 71.2818 37.7053 71.9972 37.6624 72.7163C37.6195 73.4353 37.5909 74.1578 37.5909 74.8804C37.5909 75.6596 37.4943 76.414 37.2333 77.1543C36.847 78.2452 36.1139 78.9571 34.948 79.1413C34.3758 79.2299 33.7893 79.2228 33.2063 79.2405C33.0168 79.244 32.8237 79.1732 32.6305 79.159C30.2595 78.9677 27.8919 78.7375 25.5173 78.6171C24.3836 78.5569 23.2714 78.3762 22.2378 77.9973C21.0219 77.551 20.1957 76.5486 19.4805 75.5002C18.59 74.2039 18.5649 72.6844 18.4362 71.2003C18.3861 70.6265 18.429 70.0456 18.4255 69.4648C18.4255 68.6005 18.3611 67.7434 18.2574 66.8792C18.1215 65.7387 18.1966 64.5698 18.1823 63.4152C18.1715 62.5509 18.2109 61.6867 17.982 60.8296C17.8747 60.4222 17.914 59.9689 17.914 59.5368C17.9105 56.5013 17.914 53.4659 17.9069 50.4269C17.9069 49.9559 17.8676 49.4813 17.8497 49.0669C17.6887 48.9712 17.6065 48.8827 17.5278 48.8791C15.4857 48.8579 13.4258 48.6772 11.4052 48.8791C9.40959 49.0775 7.42473 49.0491 5.43631 49.0704C4.86052 49.0775 4.27401 48.9818 3.70895 48.865C2.72189 48.656 2.04955 48.0468 1.81351 47.0763C1.47018 45.6737 1.18766 44.2569 0.894398 42.8437C0.797838 42.3726 0.772803 41.8874 0.672667 41.4198C0.450936 40.3785 0.472394 39.3124 0.329341 38.2711C0.10761 36.6383 0.186289 35.0054 0.0861525 33.3726C0.0503894 32.7953 0.01105 32.2179 0.00747369 31.6406C-0.00325523 29.3738 -0.0104078 27.1105 0.00747369 24.8437C0.0325078 21.617 0.0503894 18.3903 0.143373 15.1636C0.182713 13.7751 0.411596 12.3938 0.551072 11.0089C0.583259 10.676 0.644056 10.3359 0.633327 10.003C0.57253 8.4056 0.851482 6.84007 1.04103 5.26391C1.13401 4.49886 1.14832 3.72672 1.27706 2.96875C1.5274 1.51656 2.48585 0.701919 3.852 0.312308C4.22036 0.20605 4.61733 0.177715 5.00357 0.14938C5.34332 0.121044 5.68307 0.138754 6.0264 0.138754C8.16861 0.138754 10.3108 0.121044 12.4494 0.142296C15.3677 0.170631 18.286 0.177715 21.2007 0.283973C22.8923 0.344185 24.5767 0.57441 26.2683 0.726713C26.558 0.751506 26.8512 0.783383 27.1409 0.772758C29.1901 0.698377 31.2179 0.935686 33.2457 1.15529C33.6319 1.19779 34.0253 1.21196 34.4115 1.18716C35.8313 1.09507 37.2225 1.35009 38.6209 1.48468C39.4398 1.56261 40.2624 1.62282 41.0814 1.6972C41.5141 1.73616 41.9504 1.77512 42.3831 1.82825C42.6728 1.86367 42.9553 1.93805 43.245 1.95576C45.7163 2.1116 48.1911 2.21078 50.6551 2.42683C51.9068 2.53663 53.1442 2.8377 54.3852 3.06792C55.4474 3.26627 56.0804 3.9534 56.4452 4.91681C56.7027 5.6004 56.8278 6.30524 56.8243 7.03842C56.8064 9.34775 57.2284 11.6429 57.071 13.9558C57.4752 15.8118 57.1676 17.7102 57.3679 19.5662C57.7327 22.9841 57.4752 26.3986 57.5789 29.8165C57.5967 30.4399 57.6754 31.0633 57.7219 31.6866C57.7577 32.1648 57.8185 32.6465 57.8256 33.1247C57.8399 34.5237 57.8542 35.9192 57.8256 37.3183C57.8042 38.2286 57.6897 39.1388 57.6397 40.0491C57.6003 40.8177 57.5824 41.5899 57.5824 42.3585C57.5824 43.1908 57.4108 43.9842 57.1139 44.7528C56.7349 45.7233 56.0518 46.3714 54.9968 46.5308C53.9918 46.6831 52.969 46.7363 51.9641 46.8957C50.1401 47.1861 48.2733 46.97 46.4601 47.3526C46.2706 47.3915 46.0739 47.3844 45.8772 47.3951C43.7922 47.4765 41.7036 47.5544 39.6187 47.643C39.3397 47.6536 39.0607 47.7174 38.603 47.7847L38.5958 47.774ZM3.13317 26.3879C3.21185 28.9346 3.02945 31.4848 3.31556 34.0349C3.52656 35.8944 3.47649 37.7823 3.65173 39.6489C3.79478 41.1755 4.08446 42.6843 4.33123 44.2003C4.39203 44.5757 4.5315 44.9441 4.67098 45.3018C4.8033 45.6383 5.06437 45.8579 5.44704 45.8579C6.8561 45.8614 8.27947 45.9677 9.67423 45.8154C10.8401 45.6914 11.9988 45.6631 13.1611 45.6383C14.9564 45.5993 16.7589 45.7729 18.5471 45.4328C18.8761 45.3691 19.2265 45.3974 19.5663 45.4258C20.6499 45.5143 21.0362 45.8827 21.1077 46.9594C21.1542 47.6784 21.1291 48.4045 21.1327 49.1271C21.1792 54.5675 21.2221 60.0114 21.2686 65.4518C21.2686 65.6926 21.2329 65.9476 21.2972 66.1708C21.6298 67.3042 21.5726 68.466 21.5118 69.6135C21.4582 70.6867 21.6263 71.7316 21.8516 72.7552C22.1377 74.0445 22.8565 75.0575 24.3264 75.2558C24.8557 75.3267 25.3885 75.3479 25.9214 75.3975C26.6438 75.4648 27.3662 75.525 28.0886 75.6029C28.9541 75.6986 29.816 75.8402 30.685 75.9075C31.6471 75.9819 32.627 75.8154 33.5783 76.1236C33.9073 76.2298 34.2506 75.9713 34.3579 75.6206C34.4115 75.44 34.4437 75.2452 34.4509 75.0539C34.4902 73.6619 34.3579 72.2629 34.7334 70.8922C34.7871 68.1507 34.8407 65.4093 34.8979 62.6714C34.9766 58.9665 35.0589 55.2581 35.1375 51.5533C35.1375 51.4576 35.134 51.3585 35.1554 51.2664C35.4844 49.8886 35.3485 48.486 35.3772 47.094C35.3879 46.6619 35.37 46.2227 35.4415 45.7977C35.5381 45.2239 35.91 44.8307 36.4965 44.7493C37.4085 44.6217 38.324 44.5049 39.2431 44.4588C41.4247 44.3455 43.6098 44.2746 45.7914 44.1896C46.8106 44.1471 47.8299 44.1259 48.8491 44.0657C50.108 43.9913 51.3632 43.8956 52.6185 43.7788C52.9511 43.7469 53.273 43.5946 53.6056 43.5344C54.1313 43.4387 54.3495 43.1023 54.3459 42.617C54.3352 41.1259 54.5533 39.6418 54.5855 38.1613C54.6356 35.9086 54.843 33.6382 54.396 31.3891C54.3495 31.1554 54.3745 30.9074 54.3709 30.6666C54.2779 26.9653 54.3852 23.264 54.1778 19.5556C53.9489 15.4788 53.9239 11.3879 53.7236 7.30406C53.6771 6.34774 53.3767 5.9475 52.4755 5.84833C51.3203 5.71728 50.158 5.64644 48.9993 5.55081C48.6596 5.52247 48.3198 5.50476 47.9836 5.46934C47.4078 5.40913 46.8321 5.33829 46.2563 5.27808C45.9666 5.24975 45.6555 5.29933 45.3872 5.20724C44.6756 4.96639 43.946 5.03015 43.22 5.00181C41.861 4.94514 40.4948 4.93097 39.1466 4.77513C37.362 4.5697 35.5846 4.29697 33.7785 4.36781C33.4388 4.38198 33.0955 4.35364 32.7593 4.31114C31.6077 4.16238 30.4669 3.92153 29.3117 3.86131C27.52 3.76568 25.7211 3.89319 23.9365 3.58858C23.3679 3.49295 22.7707 3.57796 22.1877 3.55317C19.8095 3.45753 17.4348 3.30169 15.0566 3.25919C12.1383 3.20606 9.22004 3.24502 6.2982 3.24856C5.90838 3.24856 5.51856 3.23793 5.13232 3.26627C4.58872 3.30877 4.3205 3.54254 4.30977 4.08445C4.29547 5.00181 4.20248 5.90146 4.02009 6.80111C3.87704 7.50241 3.78405 8.22142 3.74114 8.93689C3.65888 10.2828 3.64815 11.6287 3.57663 12.9747C3.53371 13.7433 3.37993 14.5048 3.35847 15.2698C3.26549 18.493 3.20112 21.7161 3.13317 24.9393C3.12244 25.421 3.13317 25.9027 3.13317 26.3844V26.3879Z" fill="#0025FF"/>
<path d="M278.873 28.9312C278.809 29.1331 278.73 29.2641 278.73 29.3987C278.73 32.4766 278.333 35.544 278.448 38.629C278.501 40.1166 278.573 41.6148 278.237 43.0918C278.144 43.5062 278.215 43.956 278.208 44.3881C278.144 48.0965 278.076 51.8014 278.015 55.5098C278.008 56.034 278.047 56.5582 278.061 57.0399C278.53 57.4472 279.023 57.3941 279.499 57.4295C280.565 57.5074 281.627 57.6066 282.693 57.6987C284.138 57.8262 285.368 58.8923 285.625 60.4791C285.797 61.5239 286.004 62.5582 285.951 63.6314C285.879 65.0694 286.065 66.5216 285.729 67.949C285.665 68.2253 285.7 68.5263 285.7 68.8132C285.7 71.5653 285.268 74.2749 284.81 76.9738C284.517 78.7023 283.53 79.8463 281.738 80.2253C280.218 80.5441 278.698 80.8097 277.146 80.9797C273.502 81.3799 269.857 81.086 266.217 81.1922C264.164 80.7105 262.047 81.1604 259.98 80.7318C258.942 80.5157 257.855 80.5476 256.793 80.4449C256.021 80.3705 255.245 80.2997 254.483 80.158C252.705 79.8286 251.654 78.766 251.389 76.9844C251.236 75.9396 251.139 74.877 251.125 73.8215C251.089 71.6574 250.767 69.5039 250.874 67.3327C250.932 66.178 250.935 65.0304 251.089 63.8793C251.243 62.7388 251.143 61.5594 251.346 60.4295C251.572 59.1579 252.033 57.9289 252.351 56.6715C252.559 55.8462 253.02 55.2087 253.571 54.5747C254.261 53.7778 255.116 53.4271 256.128 53.3881C257.004 53.3563 257.88 53.3811 258.757 53.3669C259.186 53.3598 259.615 53.3173 260.037 53.2925C260.348 52.786 260.237 52.2937 260.237 51.8297C260.248 48.2169 260.241 44.6006 260.241 40.9879C260.241 38.4837 260.241 35.9796 260.241 33.4755C260.241 33.0044 260.201 32.5369 260.18 32.0658C259.49 31.7789 258.849 31.8851 258.231 31.8851C257.347 31.8851 256.493 31.7824 255.638 31.5522C254.737 31.3114 254.064 30.8049 253.56 30.0646C252.924 29.1295 252.509 28.1095 252.534 26.9583C252.566 25.3149 252.401 23.6927 252.13 22.074C252.072 21.7446 252.094 21.4011 252.083 21.0646C252.019 18.9996 252.237 16.9276 251.84 14.8698C251.722 14.2641 251.818 13.6195 251.811 12.9925C251.801 11.8875 251.74 10.7895 251.633 9.68439C251.479 8.10823 251.582 6.50728 251.593 4.91696C251.593 4.67965 251.7 4.44943 251.729 4.20858C251.911 2.83431 252.777 2.08342 254.05 1.72215C254.751 1.5238 255.463 1.33254 256.182 1.24045C257.24 1.10585 258.317 1.10585 259.375 0.978343C261.643 0.698532 263.942 0.93584 266.202 0.542687C266.581 0.475391 266.978 0.503726 267.368 0.503726C269.364 0.503726 271.359 0.496642 273.355 0.503726C274.424 0.507268 275.494 0.432887 276.549 0.719783C276.867 0.804789 277.225 0.772912 277.564 0.762286C279.177 0.716241 280.765 0.95355 282.349 1.20148C282.968 1.29712 283.573 1.50609 284.17 1.69735C286.008 2.28177 286.895 3.63833 287.117 5.44825C287.263 6.63833 287.288 7.84259 287.385 9.03976C287.453 9.8544 287.51 10.6726 287.639 11.4801C287.903 13.159 287.789 14.845 287.832 16.5274C287.875 18.2594 288 19.9878 288.004 21.7163C288.004 22.963 287.882 24.2133 287.778 25.4566C287.642 27.1106 286.466 28.407 284.363 28.5805C282.814 28.708 281.269 28.871 279.71 28.8214C279.431 28.8143 279.152 28.8816 278.877 28.9135L278.873 28.9312ZM282.339 60.9218C281.427 60.7695 280.672 60.5995 279.907 60.5251C278.559 60.3941 277.207 60.3091 275.851 60.2347C275.29 60.2028 274.957 59.9301 274.743 59.4484C274.478 58.8462 274.546 58.2264 274.607 57.5995C274.682 56.8344 274.778 56.0729 274.796 55.3079C274.828 54.0576 274.803 52.8037 274.807 51.5499C274.807 51.0682 274.735 50.5617 274.857 50.1119C275.147 49.067 275.064 48.0115 275.075 46.956C275.089 45.6561 275.075 44.3527 275.082 43.0528C275.082 42.6703 275.122 42.2842 275.161 41.9017C275.218 41.3315 275.336 40.7612 275.347 40.191C275.415 36.1992 275.461 32.2075 275.515 28.2157C275.515 27.9749 275.515 27.734 275.544 27.4932C275.676 26.3102 276.227 25.7612 277.407 25.6655C277.89 25.6266 278.38 25.6478 278.866 25.6443C280.468 25.6372 282.07 25.708 283.662 25.4034C284.56 25.2334 284.674 25.1767 284.703 24.3444C284.746 23.0941 284.792 21.8403 284.788 20.59C284.781 18.5675 284.738 16.5451 284.71 14.5226C284.699 13.8497 284.642 13.1944 284.527 12.5215C284.316 11.296 284.284 10.0421 284.173 8.79891C284.084 7.793 283.991 6.79064 283.894 5.78827C283.837 5.19323 283.494 4.82841 282.929 4.64423C282.696 4.56985 282.471 4.46714 282.235 4.42817C281.044 4.22628 279.857 3.96064 278.655 3.86501C277.207 3.75167 275.74 3.91814 274.303 3.57457C271.492 3.68083 268.666 3.31955 265.863 3.81542C265.673 3.8473 265.473 3.82959 265.28 3.83313C263.828 3.86501 262.365 3.70916 260.931 4.08815C260.749 4.13774 260.541 4.12003 260.348 4.10232C259.075 3.97481 257.82 4.21212 256.589 4.43526C254.887 4.74341 254.787 4.56985 254.769 6.53562C254.755 8.12594 254.926 9.70564 254.994 11.2889C255.127 14.3668 255.112 17.4483 255.169 20.5297C255.177 20.9619 255.22 21.394 255.27 21.819C255.445 23.2464 255.788 24.6525 255.71 26.1047C255.695 26.3456 255.692 26.59 255.72 26.8273C255.867 28.0918 256.425 28.662 257.648 28.7647C258.034 28.7966 258.427 28.7789 258.814 28.7789C259.837 28.7824 260.863 28.7258 261.879 28.8072C263.47 28.9312 263.652 29.6856 263.606 30.6313C263.595 30.8722 263.595 31.113 263.56 31.3503C263.209 33.5994 263.241 35.845 263.534 38.0977C263.577 38.4271 263.552 38.7671 263.527 39.1C263.477 39.7695 263.352 40.4353 263.352 41.1012C263.334 45.4861 263.345 49.871 263.341 54.2524C263.341 54.6845 263.359 55.1201 263.32 55.5523C263.256 56.2677 262.819 56.6644 262.082 56.7069C261.839 56.7211 261.585 56.7423 261.356 56.6786C259.872 56.2677 258.356 56.5227 256.857 56.4661C256.192 56.4413 255.77 56.8132 255.484 57.3657C255.373 57.5782 255.277 57.8049 255.22 58.0387C254.901 59.3421 254.454 60.6101 254.494 61.995C254.522 62.9903 254.347 64.0033 254.161 64.9915C253.814 66.8581 254.039 68.7353 254.004 70.6054C254.354 71.5865 254.207 72.6066 254.261 73.609C254.293 74.2288 254.383 74.8451 254.483 75.4579C254.558 75.9183 254.361 76.5098 254.819 76.8073C255.205 77.0553 255.713 77.1261 256.174 77.2536C256.407 77.3174 256.65 77.3315 256.893 77.3528C258.292 77.4661 259.69 77.5901 261.092 77.6857C262.884 77.8062 264.679 77.9903 266.471 77.9939C270.501 78.0045 274.542 78.217 278.559 77.6397C279.181 77.5511 279.803 77.459 280.418 77.3245C281.33 77.1261 281.895 76.6232 281.806 75.6102C281.795 75.4685 281.813 75.3197 281.845 75.178C282.332 73.0104 282.467 70.8109 282.482 68.5972C282.482 68.119 282.568 67.6408 282.582 67.1591C282.625 65.5724 282.682 63.9856 282.671 62.4023C282.671 61.9348 282.467 61.4708 282.339 60.9183V60.9218Z" fill="#0025FF"/>
<path d="M88.1203 82.5593C86.1068 82.499 84.1148 82.4601 82.1228 82.368C81.3503 82.3326 80.5671 82.2511 79.8161 82.0705C77.9314 81.6242 76.0502 81.1956 74.2299 80.4553C72.4596 79.7363 70.7788 78.9182 69.2231 77.8379C68.5078 77.342 67.8212 76.8001 67.1703 76.2192C66.1904 75.3444 65.754 74.1614 65.4465 72.9359C65.0459 71.3491 64.6883 69.7481 64.3521 68.1472C63.8765 65.8874 63.3222 63.6348 63.011 61.3538C62.7321 59.3065 62.1777 57.2947 62.1563 55.2156C62.1563 55.0704 62.1491 54.9216 62.1098 54.787C61.5948 52.8709 61.5769 50.8874 61.2801 48.9393C60.9654 46.8992 60.9081 44.8236 60.7365 42.7622C60.5827 40.8956 60.4289 39.029 60.2787 37.166C60.2501 36.7835 60.2358 36.3974 60.2358 36.0113C60.2358 31.2404 60.2 26.4694 60.2537 21.702C60.2716 20.0727 60.5183 18.4505 60.6507 16.8212C60.715 16.0066 60.7401 15.1884 60.8187 14.3737C60.9296 13.2261 61.0905 12.0821 61.1943 10.9345C61.3373 9.36545 62.0812 8.10453 63.1541 7.00299C63.762 6.37961 64.395 5.77749 65.0137 5.16828C65.797 4.39968 66.7483 3.94277 67.8104 3.70546C69.3768 3.35835 70.9397 3.00062 72.5168 2.71727C73.8043 2.48704 75.1204 2.39141 76.4114 2.18244C77.8098 1.95929 79.2188 2.00534 80.6243 1.92742C81.9762 1.85658 83.3209 1.6299 84.6691 1.48822C85.0554 1.44572 85.4452 1.44572 85.835 1.44572C87.5874 1.44217 89.3398 1.42801 91.0886 1.4528C91.7645 1.46343 92.4404 1.5626 93.1128 1.62281C93.2093 1.6299 93.3059 1.65823 93.4025 1.66177C95.0976 1.76095 96.7928 1.84595 98.4844 1.95575C99.4035 2.01597 100.319 2.11868 101.238 2.20015C104.875 2.51892 108.455 3.17772 112.021 3.9286C113.78 4.29696 115.096 5.20724 116.094 6.70901C116.759 7.71137 117.146 8.71374 117.224 9.91445C117.371 12.1175 117.703 14.3135 117.847 16.5166C117.95 18.1494 117.854 19.7929 117.886 21.4292C117.904 22.2935 118.007 23.1542 118.065 24.0148C118.09 24.3974 118.111 24.7834 118.115 25.1695C118.122 26.5686 118.14 27.9641 118.108 29.3631C118.09 30.2274 117.975 31.0881 117.929 31.9487C117.893 32.6217 117.889 33.2947 117.879 33.9712C117.85 35.5084 117.975 37.0526 117.664 38.5828C117.589 38.9547 117.625 39.3514 117.636 39.7374C117.671 41.14 117.364 42.5178 117.317 43.9027C117.249 45.8331 116.867 47.7138 116.663 49.6229C116.545 50.7209 116.312 51.8047 116.148 52.8992C115.518 57.0893 114.646 61.2333 113.505 65.3172C112.808 67.8213 111.978 70.2865 110.93 72.6737C110.755 73.0704 110.622 73.4849 110.469 73.8886C110.09 74.891 109.585 75.8013 108.773 76.5451C107.844 77.3951 106.971 78.3019 106.084 79.198C105.14 80.1543 104.056 80.7812 102.679 80.976C101.145 81.1956 99.6324 81.5746 98.1053 81.8686C96.5782 82.1626 95.0404 82.3432 93.4847 82.3857C91.6858 82.4317 89.8905 82.499 88.1095 82.5593H88.1203ZM63.4366 28.6937C63.4366 30.5249 63.4151 32.3561 63.4437 34.1872C63.4688 36.0149 63.5403 37.8425 63.594 39.6737C63.6011 39.9145 63.5582 40.1731 63.6333 40.3927C63.9337 41.2357 63.8407 42.107 63.8729 42.9677C63.8908 43.3962 63.9659 43.8213 64.0231 44.2498C64.134 45.107 64.3307 45.9606 64.345 46.8177C64.3736 48.1743 64.6812 49.4954 64.7491 50.8378C64.8063 51.9039 64.9458 52.9382 65.2104 53.9653C65.2462 54.1035 65.2999 54.2487 65.2963 54.3868C65.2319 55.8461 65.6503 57.2451 65.8613 58.6654C66.1617 60.6596 66.4228 62.6572 66.9342 64.6194C67.3598 66.2452 67.603 67.917 67.957 69.5604C68.1788 70.5911 68.4434 71.6183 68.7188 72.6383C68.8833 73.2511 69.2445 73.7292 69.7309 74.1791C71.8552 76.1271 74.4552 77.1791 77.1088 78.1318C79.412 78.9571 81.826 79.3255 84.2543 79.3609C87.3156 79.4069 90.3769 79.4672 93.4418 79.2582C96.3672 79.0563 99.2032 78.4931 102.043 77.8414C102.783 77.6714 103.409 77.3633 103.938 76.8355C104.797 75.9819 105.676 75.1496 106.51 74.2712C106.835 73.9276 107.143 73.5203 107.321 73.0882C107.99 71.4872 108.663 69.8863 109.22 68.2463C109.839 66.4293 110.383 64.5805 110.869 62.721C111.484 60.3479 112.114 57.9748 112.468 55.545C112.682 54.0716 112.85 52.584 113.176 51.1318C113.534 49.5344 113.612 47.898 113.923 46.2971C114.006 45.8756 113.956 45.4328 113.973 45.0007C113.991 44.6147 113.988 44.2286 114.045 43.8496C114.32 42.0893 114.574 40.3325 114.488 38.5438C114.474 38.2569 114.449 37.9452 114.535 37.6831C114.839 36.741 114.746 35.7776 114.757 34.8177C114.771 33.7587 114.617 32.6713 114.803 31.6441C115.175 29.5792 114.946 27.5143 115.025 25.4493C115.036 25.2085 115.064 24.9499 114.993 24.7303C114.656 23.6925 114.771 22.6299 114.76 21.5745C114.746 20.3206 114.76 19.0668 114.753 17.8165C114.753 17.4304 114.742 17.0443 114.703 16.6618C114.553 15.2805 114.381 13.9027 114.227 12.5213C114.131 11.6606 114.088 10.7964 113.959 9.94279C113.727 8.41268 112.682 7.32885 111.17 6.99591C108.849 6.48587 106.517 6.01834 104.146 5.78811C103.327 5.71019 102.504 5.62872 101.692 5.49413C100.069 5.22495 98.4451 4.97347 96.7892 5.00889C96.4495 5.01597 96.1097 4.99118 95.77 4.96993C93.2988 4.82117 90.8311 4.52365 88.3456 4.62282C87.5695 4.6547 86.7899 4.62282 86.0102 4.6299C85.6204 4.63344 85.2342 4.65824 84.8444 4.68303C83.1957 4.78929 81.5506 4.89201 79.9019 5.01243C78.5966 5.10806 77.2876 5.16473 75.9966 5.34537C74.2692 5.58268 72.5526 5.89791 70.8396 6.22731C69.9848 6.39024 69.1372 6.61338 68.3147 6.89319C67.8676 7.04549 67.4242 7.31822 67.088 7.64408C66.362 8.34892 65.7183 9.13523 65.0209 9.87195C64.5596 10.3607 64.3807 10.9274 64.3915 11.5862C64.3986 12.0644 64.4272 12.5709 64.2985 13.0207C63.7799 14.8413 63.8836 16.7362 63.6333 18.5851C63.408 20.2462 63.4688 21.9464 63.4437 23.6323C63.4187 25.3183 63.4366 27.0042 63.4366 28.6937Z" fill="#0025FF"/>
<path d="M160.051 41.5898C156.936 41.5898 153.821 41.5969 150.709 41.5898C149.057 41.5827 147.408 41.5898 145.756 41.4198C144.311 41.271 142.841 41.3773 141.382 41.3844C141.143 41.3844 140.896 41.4233 140.66 41.48C139.855 41.6713 139.333 42.16 139.326 42.9853C139.315 44.3915 138.986 45.7445 138.782 47.1187C138.539 48.7516 139.065 49.3147 140.756 49.3856C142.212 49.4493 143.689 49.3714 145.123 49.5733C147.158 49.8531 149.193 49.7398 151.224 49.846C152.476 49.9133 153.721 50.14 154.969 50.2923C155.112 50.31 155.258 50.3277 155.405 50.3313C157.057 50.3667 158.702 50.4092 160.355 50.5473C162.579 50.735 164.825 50.6642 167.06 50.728C167.64 50.7457 168.215 50.8413 168.791 50.9051C168.934 50.9192 169.077 50.9582 169.224 50.9653C171.355 51.0644 173.487 51.1459 175.615 51.2628C176.97 51.3372 178.326 51.4293 179.674 51.5674C180.493 51.6524 180.79 51.9853 180.786 52.7929C180.782 54.0892 180.922 55.3927 180.632 56.6819C180.55 57.0538 180.571 57.4505 180.561 57.8331C180.511 59.4694 180.582 61.12 180.378 62.7351C180.203 64.1306 180.207 65.5155 180.142 66.9039C180.114 67.5698 179.985 68.2357 179.878 68.898C179.556 70.9346 179.634 73.0208 179.109 75.0362C178.919 75.7658 178.808 75.911 178.022 75.9146C175.686 75.9287 173.329 76.1058 171.019 75.865C168.584 75.6135 166.166 75.7516 163.741 75.6525C163.065 75.6241 162.393 75.532 161.717 75.4789C161.234 75.4435 160.748 75.4081 160.262 75.4045C158.509 75.3939 156.757 75.4222 155.008 75.3904C153.942 75.3726 152.877 75.2664 151.811 75.2026C151.421 75.1814 151.035 75.1637 150.645 75.1601C149.719 75.153 148.796 75.1637 147.87 75.1566C143.492 75.1141 139.115 75.0645 134.738 75.0184C134.591 75.0184 134.441 75.0397 134.301 75.0078C132.817 74.6501 131.304 74.7741 129.802 74.7528C129.752 74.7528 129.706 74.7528 129.656 74.7528C128.915 74.7068 128.701 74.5226 128.608 73.8284C128.518 73.1625 128.454 72.4895 128.365 71.8236C128.121 70.0066 128.028 68.1861 128.075 66.3549C128.096 65.3915 128.075 64.4281 128.082 63.4647C128.082 63.1778 128.071 62.8803 128.128 62.6005C128.365 61.4387 129.044 60.9287 130.206 61.0916C131.984 61.3396 133.754 61.6406 135.531 61.9027C137.448 62.1861 139.369 62.4553 141.293 62.7138C143.643 63.0291 145.996 63.3372 148.349 63.6276C148.828 63.6878 149.322 63.6985 149.804 63.6772C150.477 63.6453 151.006 63.1778 151.113 62.5296C151.332 61.2014 151.546 59.8767 151.718 58.5414C151.797 57.9251 151.797 57.2911 151.775 56.6678C151.754 56.0373 151.521 55.7752 150.91 55.7185C149.851 55.6158 148.807 55.4245 147.73 55.3856C145.939 55.3254 144.154 55.0916 142.366 54.9358C141.736 54.8826 141.107 54.8401 140.477 54.787C139.222 54.6878 137.963 54.6134 136.715 54.4718C135.757 54.362 134.805 54.1636 133.851 54.0113C131.841 53.689 129.827 53.3809 127.817 53.0479C127.438 52.9842 127.066 52.8531 126.698 52.7327C126.294 52.6016 126.04 52.3183 126.001 51.8932C125.961 51.5107 125.947 51.1247 125.947 50.7386C125.943 47.6075 125.929 44.4729 125.951 41.3419C125.965 39.369 125.911 37.382 126.133 35.4269C126.312 33.8401 126.176 32.2427 126.408 30.6878C126.684 28.8601 126.569 27.0396 126.641 25.219C126.659 24.7409 126.744 24.2663 126.798 23.7916C126.827 23.5543 126.888 23.3135 126.88 23.0762C126.791 20.6641 127.259 18.2804 127.292 15.8755C127.299 15.3052 127.403 14.7243 127.549 14.1682C127.867 12.964 127.717 11.6676 128.322 10.5236C128.458 10.2686 128.558 9.99586 128.683 9.7373C129.294 8.47284 130.357 7.95926 131.73 7.88842C133.182 7.81404 134.63 7.6759 136.079 7.57319C136.561 7.53777 137.048 7.49172 137.534 7.49527C138.997 7.50943 140.438 7.28275 141.879 7.08795C142.216 7.0419 142.559 6.98169 142.891 7.00294C144.597 7.10211 146.3 6.96752 147.966 6.68417C149.619 6.40081 151.26 6.52478 152.905 6.44686C154.118 6.39019 155.33 6.26976 156.542 6.19184C157.415 6.13517 158.287 6.08912 159.164 6.06433C160.33 6.03245 161.488 6.04662 162.654 5.87661C163.656 5.72785 164.693 5.83056 165.715 5.81285C166.588 5.79869 167.454 5.73847 168.323 5.63576C169.571 5.487 170.847 5.55784 172.114 5.58263C172.786 5.5968 173.04 5.88723 173.158 6.55311C173.469 8.30991 173.515 10.0844 173.598 11.8625C173.637 12.7267 173.73 13.5874 173.776 14.4516C173.816 15.2202 173.819 15.9923 173.837 16.7609C173.869 18.1069 173.744 19.4563 174.045 20.7916C174.127 21.16 174.08 21.5602 174.08 21.9463C174.08 27.8259 174.08 33.7055 174.08 39.5851C174.08 39.9711 174.088 40.3572 174.048 40.7397C173.995 41.2569 173.741 41.5012 173.194 41.5544C172.761 41.5969 172.317 41.5933 171.881 41.5933C167.94 41.5933 163.999 41.5933 160.058 41.5933L160.051 41.5898Z" fill="white"/>
<path d="M210.079 76.0742C208.613 76.2761 205.695 76.223 204.514 76.0246C204.039 75.9432 203.545 75.9042 203.066 75.9326C201.264 76.0424 199.486 75.7342 197.694 75.635C197.501 75.6244 197.312 75.5784 197.126 75.5288C195.409 75.079 195.177 74.7885 195.173 73.0353C195.166 69.2773 195.18 65.5193 195.162 61.7613C195.162 61.0423 195.052 60.3233 195.009 59.6043C194.969 58.9809 194.926 58.354 194.926 57.7306C194.919 50.0694 194.926 42.4083 194.916 34.7471C194.916 33.936 194.783 33.1214 194.726 32.3103C194.694 31.8781 194.672 31.446 194.672 31.0139C194.672 24.2205 194.669 17.4271 194.672 10.6302C194.672 10.1591 194.719 9.68446 194.744 9.20276C195.795 8.69981 196.875 8.63605 197.913 8.45895C199.34 8.21456 200.784 8.02684 202.229 7.93121C203.538 7.84266 204.854 7.88162 206.167 7.92767C206.521 7.94183 206.871 8.18268 207.254 8.33145C207.279 8.82731 207.318 9.25589 207.318 9.68092C207.322 15.4153 207.325 21.1497 207.311 26.884C207.311 27.4543 207.15 28.021 207.132 28.5948C207.089 29.8451 206.979 31.106 207.1 32.3421C207.215 33.5074 207.719 34.2619 209.317 34.3681C209.85 34.4035 210.401 34.4567 210.92 34.361C212.758 34.0316 214.607 34.1804 216.449 34.1414C216.788 34.1343 217.132 34.1485 217.468 34.1025C218.383 33.9785 218.816 33.5039 218.902 32.5688C218.923 32.328 218.913 32.0871 218.916 31.8463C218.931 30.8864 218.863 29.9265 219.134 28.9773C219.238 28.616 219.181 28.2123 219.184 27.8262C219.188 26.4271 219.184 25.0316 219.184 23.6325C219.184 22.7187 219.199 21.8155 219.367 20.9017C219.506 20.1544 219.428 19.3645 219.438 18.5959C219.46 17.296 219.356 15.9926 219.639 14.7069C219.678 14.5227 219.667 14.3244 219.671 14.1296C219.725 11.675 219.778 9.22047 219.825 6.76592C219.85 5.4129 220.147 5.0835 221.538 5.01267C223.043 4.93828 224.549 4.91349 226.055 4.86036C226.491 4.84619 226.934 4.84974 227.36 4.76827C228.283 4.59118 229.184 4.66556 230.114 4.75765C231.659 4.90995 233.218 4.91703 234.77 5.01267C235.346 5.04808 235.922 5.13309 236.49 5.24643C237.442 5.4377 238.382 5.66084 239.326 5.88398C239.655 5.9619 239.981 6.0717 240.303 6.18504C241.075 6.45777 241.472 6.98197 241.461 7.82141C241.443 9.3161 241.458 10.8072 241.461 12.3019C241.461 14.8557 241.447 17.4094 241.461 19.9631C241.504 26.0304 241.39 32.1084 241.651 38.165C241.991 46.0175 241.708 53.8664 241.851 61.7117C241.865 62.4272 241.983 63.1427 242.041 63.8617C242.073 64.2442 242.098 64.6303 242.098 65.0164C242.101 68.5831 242.105 72.1462 242.098 75.713C242.094 77.3104 242.044 77.3635 240.478 77.3599C239.412 77.3599 238.346 77.4343 237.291 77.1404C236.837 77.0128 236.326 77.1014 235.839 77.0908C234.774 77.0695 233.701 77.1793 232.649 76.8747C232.467 76.8216 232.263 76.8499 232.07 76.8393C229.888 76.7012 227.71 76.5701 225.529 76.4178C224.899 76.3718 224.274 76.2655 223.651 76.1663C223.269 76.1061 223.054 75.8546 223.029 75.4721C223.008 75.1356 223.008 74.7991 223 74.4627C222.979 73.5984 223.029 72.7413 222.782 71.8841C222.639 71.3918 222.725 70.8322 222.721 70.3009C222.714 69.3375 222.721 68.3741 222.721 67.4107C222.721 67.1203 222.764 66.8192 222.696 66.5465C222.328 65.073 222.493 63.5748 222.46 62.0872C222.407 59.4874 222.382 56.8876 222.307 54.2879C222.274 53.1367 222.156 51.9856 222.056 50.838C221.985 50.0092 221.616 49.6338 220.794 49.5027C220.697 49.4886 220.601 49.4744 220.504 49.4744C218.219 49.4744 215.93 49.4673 213.645 49.4744C213.359 49.4744 213.062 49.5346 212.786 49.6267C212.125 49.8463 211.746 50.3209 211.685 51.0116C211.653 51.3941 211.667 51.7802 211.66 52.1663C211.638 53.2713 211.731 54.3764 211.442 55.4709C211.334 55.8782 211.41 56.3351 211.399 56.7672C211.37 57.8688 211.399 58.9597 211.188 60.0683C210.998 61.0459 211.152 62.0836 211.116 63.0966C211.091 63.7661 210.98 64.4319 210.938 65.0978C210.891 65.7708 210.87 66.4437 210.859 67.1167C210.841 68.4131 210.92 69.7165 210.601 70.9951C210.319 72.1285 210.358 73.2867 210.351 74.4449C210.351 74.9656 210.451 75.5075 210.072 76.0707L210.079 76.0742Z" fill="white"/>
<path d="M3.1327 26.3882C3.1327 25.9065 3.12197 25.4248 3.1327 24.9431C3.20422 21.7199 3.26502 18.4968 3.35801 15.2736C3.37946 14.505 3.53324 13.7435 3.57616 12.9785C3.65126 11.6325 3.66199 10.2866 3.74067 8.94067C3.78359 8.2252 3.87657 7.50973 4.01962 6.80489C4.20201 5.90524 4.29142 5.00559 4.3093 4.08824C4.32003 3.54632 4.58468 3.31256 5.13185 3.27005C5.51809 3.23818 5.90791 3.25234 6.29773 3.25234C9.216 3.25234 12.1378 3.21338 15.0561 3.26297C17.4343 3.30547 19.8126 3.46132 22.1873 3.55695C22.7702 3.58174 23.3674 3.49674 23.9361 3.59237C25.7207 3.89697 27.5195 3.76946 29.3113 3.8651C30.4664 3.92531 31.6108 4.1697 32.7588 4.31492C33.095 4.35742 33.4383 4.38576 33.7781 4.37159C35.5841 4.30075 37.3615 4.56994 39.1461 4.77891C40.4944 4.93476 41.8605 4.94892 43.2195 5.00559C43.9455 5.03747 44.6751 4.97017 45.3868 5.21103C45.6514 5.30312 45.9661 5.24999 46.2558 5.28186C46.8316 5.33853 47.4074 5.41292 47.9832 5.47313C48.3193 5.50855 48.6591 5.52626 48.9988 5.55459C50.1576 5.65022 51.3199 5.72106 52.475 5.85211C53.3762 5.95483 53.6766 6.35507 53.7231 7.30784C53.9234 11.3917 53.9484 15.4826 54.1773 19.5593C54.3847 23.2677 54.2775 26.969 54.3704 30.6704C54.3776 30.9112 54.349 31.1591 54.3955 31.3929C54.8461 33.6385 54.6351 35.9089 54.585 38.1651C54.5528 39.6456 54.3347 41.1296 54.3454 42.6208C54.3454 43.106 54.1308 43.4425 53.6051 43.5382C53.2725 43.5984 52.9506 43.7542 52.6181 43.7825C51.3628 43.8994 50.1075 43.9915 48.8486 44.0694C47.8294 44.1297 46.8101 44.1544 45.7909 44.1934C43.6093 44.282 41.4242 44.3528 39.2427 44.4626C38.3236 44.5086 37.408 44.6255 36.4961 44.753C35.9096 44.838 35.5376 45.2312 35.4411 45.8014C35.3695 46.2265 35.3874 46.6657 35.3767 47.0978C35.3445 48.4898 35.484 49.8924 35.1549 51.2702C35.1335 51.3623 35.1406 51.4614 35.1371 51.5571C35.0548 55.2619 34.9761 58.9703 34.8975 62.6752C34.8402 65.4166 34.7866 68.158 34.7329 70.8959C34.361 72.2631 34.4898 73.6657 34.4504 75.0577C34.4468 75.2454 34.4147 75.4402 34.3574 75.6244C34.2501 75.9715 33.9068 76.2336 33.5778 76.1274C32.6265 75.8157 31.6466 75.9857 30.6846 75.9113C29.8155 75.844 28.9536 75.6988 28.0882 75.6067C27.3658 75.5288 26.6433 75.4686 25.9209 75.4013C25.3916 75.3517 24.8552 75.3304 24.3259 75.2596C22.856 75.0613 22.1372 74.0483 21.8511 72.759C21.6258 71.7389 21.4541 70.6941 21.5113 69.6173C21.5686 68.4697 21.6294 67.308 21.2968 66.1746C21.2324 65.9514 21.2682 65.6964 21.2682 65.4556C21.2217 60.0152 21.1752 54.5712 21.1323 49.1308C21.1251 48.4083 21.1537 47.6822 21.1072 46.9632C21.0357 45.8829 20.653 45.5181 19.5658 45.4295C19.2297 45.4012 18.8756 45.3764 18.5466 45.4366C16.7584 45.7731 14.956 45.5996 13.1607 45.6421C11.9948 45.6668 10.8396 45.6952 9.67376 45.8192C8.279 45.9679 6.85563 45.8652 5.44657 45.8617C5.0639 45.8617 4.79926 45.6421 4.67051 45.3056C4.53103 44.9478 4.39156 44.5795 4.33076 44.204C4.08042 42.6916 3.79074 41.1792 3.65126 39.6527C3.47602 37.7861 3.52609 35.8982 3.31509 34.0387C3.02899 31.4885 3.21138 28.9384 3.1327 26.3917V26.3882Z" fill="white"/>
<path d="M282.339 60.9221C282.471 61.4781 282.671 61.9421 282.671 62.4061C282.678 63.9929 282.625 65.5797 282.582 67.1629C282.568 67.6411 282.485 68.1228 282.482 68.6009C282.467 70.8146 282.332 73.0142 281.845 75.1818C281.813 75.32 281.795 75.4723 281.806 75.6139C281.895 76.6269 281.327 77.1299 280.418 77.3282C279.807 77.4628 279.181 77.5549 278.559 77.6435C274.542 78.2173 270.501 78.0083 266.471 77.9977C264.679 77.9941 262.884 77.8099 261.092 77.6895C259.69 77.5939 258.292 77.4699 256.893 77.3566C256.654 77.3353 256.407 77.3212 256.174 77.2574C255.713 77.1334 255.205 77.0626 254.819 76.8111C254.361 76.5171 254.558 75.9256 254.483 75.4616C254.383 74.8489 254.29 74.2326 254.261 73.6128C254.211 72.6069 254.354 71.5868 254.004 70.6092C254.039 68.7391 253.814 66.8654 254.161 64.9953C254.343 64.0071 254.519 62.9941 254.494 61.9988C254.454 60.6104 254.901 59.3459 255.22 58.0425C255.277 57.8123 255.373 57.582 255.484 57.3695C255.767 56.817 256.192 56.4451 256.858 56.4699C258.356 56.5265 259.872 56.2715 261.357 56.6824C261.585 56.7461 261.839 56.7249 262.083 56.7107C262.819 56.6682 263.256 56.2715 263.32 55.556C263.359 55.1239 263.341 54.6883 263.341 54.2562C263.341 49.8713 263.334 45.4864 263.352 41.105C263.352 40.4391 263.477 39.7733 263.527 39.1038C263.552 38.7709 263.577 38.4309 263.534 38.1015C263.241 35.8488 263.209 33.6032 263.56 31.3541C263.595 31.1168 263.595 30.8759 263.606 30.6351C263.653 29.6894 263.47 28.9314 261.879 28.811C260.863 28.7331 259.837 28.7898 258.814 28.7827C258.424 28.7827 258.034 28.8004 257.648 28.7685C256.428 28.6658 255.867 28.0955 255.72 26.8311C255.692 26.5938 255.699 26.3494 255.71 26.1085C255.785 24.6563 255.445 23.2466 255.27 21.8228C255.216 21.3942 255.177 20.9621 255.17 20.5335C255.116 17.4521 255.13 14.3706 254.994 11.2927C254.926 9.70943 254.755 8.12973 254.769 6.53941C254.783 4.5701 254.887 4.7472 256.589 4.43905C257.82 4.21591 259.075 3.9786 260.348 4.10611C260.541 4.12382 260.749 4.14153 260.931 4.09194C262.365 3.71296 263.828 3.8688 265.28 3.83692C265.473 3.83338 265.673 3.85109 265.863 3.81921C268.663 3.32334 271.488 3.68816 274.303 3.57836C275.737 3.91839 277.207 3.75192 278.655 3.8688C279.857 3.96443 281.044 4.22653 282.235 4.43197C282.471 4.47093 282.7 4.57364 282.929 4.64802C283.49 4.82866 283.834 5.19702 283.894 5.79206C283.995 6.79443 284.084 7.80033 284.173 8.8027C284.284 10.0459 284.316 11.2998 284.527 12.5253C284.642 13.1947 284.703 13.8535 284.71 14.5264C284.738 16.5489 284.785 18.5713 284.788 20.5937C284.788 21.844 284.746 23.0979 284.703 24.3482C284.674 25.177 284.556 25.2372 283.662 25.4072C282.07 25.7083 280.468 25.6374 278.866 25.6481C278.38 25.6481 277.89 25.6304 277.407 25.6693C276.227 25.765 275.676 26.314 275.544 27.497C275.519 27.7343 275.519 27.9787 275.515 28.2195C275.461 32.2113 275.415 36.203 275.347 40.1947C275.336 40.765 275.218 41.3352 275.161 41.9055C275.122 42.288 275.086 42.6705 275.082 43.0566C275.072 44.3565 275.09 45.6599 275.075 46.9598C275.064 48.0153 275.147 49.0708 274.857 50.1157C274.732 50.5655 274.807 51.072 274.807 51.5537C274.803 52.8075 274.828 54.0578 274.796 55.3117C274.778 56.0767 274.682 56.8418 274.607 57.6033C274.546 58.2302 274.478 58.85 274.743 59.4522C274.954 59.9339 275.29 60.2066 275.851 60.2385C277.203 60.3128 278.559 60.3979 279.907 60.5289C280.672 60.6033 281.427 60.7733 282.339 60.9256V60.9221Z" fill="white"/>
<path d="M63.4364 28.6941C63.4364 27.0081 63.415 25.3186 63.4436 23.6327C63.4686 21.9467 63.4042 20.2466 63.6331 18.5854C63.887 16.733 63.7798 14.8416 64.2983 13.0211C64.4271 12.5677 64.3985 12.0647 64.3913 11.5866C64.3806 10.9278 64.5594 10.3611 65.0207 9.8723C65.7145 9.13558 66.3619 8.34927 67.0878 7.64443C67.424 7.31503 67.8675 7.04584 68.3145 6.89354C69.1371 6.61373 69.9847 6.39059 70.8394 6.22766C72.5524 5.89826 74.2691 5.58303 75.9964 5.34572C77.2875 5.16863 78.6 5.10841 79.9018 5.01278C81.5469 4.89236 83.1955 4.78964 84.8442 4.68338C85.234 4.65859 85.6203 4.6338 86.0101 4.63025C86.7897 4.62317 87.5694 4.65151 88.3454 4.62317C90.8309 4.524 93.295 4.82506 95.7698 4.97028C96.1096 4.99153 96.4493 5.01632 96.7891 5.00924C98.4449 4.97382 100.069 5.2253 101.692 5.49448C102.504 5.62908 103.327 5.707 104.146 5.78846C106.517 6.01869 108.848 6.48622 111.169 6.99626C112.682 7.3292 113.726 8.41303 113.959 9.94314C114.088 10.7967 114.131 11.6645 114.227 12.5217C114.381 13.903 114.553 15.2808 114.703 16.6622C114.746 17.0447 114.753 17.4308 114.753 17.8168C114.76 19.0707 114.746 20.3245 114.76 21.5748C114.771 22.6303 114.66 23.6929 114.992 24.7307C115.064 24.9503 115.035 25.2088 115.025 25.4497C114.942 27.5111 115.171 29.5795 114.803 31.6445C114.617 32.6716 114.767 33.759 114.756 34.818C114.746 35.7779 114.839 36.7413 114.535 37.6835C114.449 37.9491 114.477 38.2573 114.488 38.5441C114.57 40.3328 114.317 42.0932 114.045 43.8499C113.984 44.2289 113.988 44.6185 113.973 45.0011C113.955 45.4332 114.005 45.8795 113.923 46.2974C113.612 47.8984 113.533 49.5312 113.176 51.1321C112.85 52.5843 112.682 54.0719 112.468 55.5454C112.114 57.9751 111.484 60.3482 110.869 62.7213C110.386 64.5808 109.839 66.4261 109.22 68.2467C108.662 69.8866 107.99 71.4876 107.321 73.0885C107.139 73.5206 106.835 73.9279 106.509 74.2715C105.676 75.1499 104.796 75.9823 103.938 76.8359C103.409 77.3636 102.783 77.6717 102.043 77.8418C99.2067 78.497 96.3671 79.0602 93.4416 79.2585C90.3768 79.4675 87.3154 79.4073 84.2541 79.3612C81.8258 79.3258 79.4154 78.9575 77.1087 78.1322C74.455 77.1794 71.8551 76.1275 69.7307 74.1794C69.2408 73.7331 68.8831 73.2514 68.7186 72.6387C68.4433 71.6186 68.1786 70.595 67.9569 69.5608C67.6028 67.9173 67.3596 66.2455 66.9341 64.6198C66.4227 62.6575 66.1616 60.6599 65.8612 58.6658C65.6466 57.2419 65.2317 55.8464 65.2961 54.3872C65.3033 54.249 65.246 54.1038 65.2103 53.9657C64.9456 52.9385 64.8062 51.9007 64.7489 50.8382C64.6774 49.4958 64.3734 48.1746 64.3448 46.8181C64.3269 45.9609 64.1338 45.1073 64.023 44.2502C63.9657 43.8252 63.8906 43.3966 63.8727 42.968C63.837 42.1038 63.9335 41.236 63.6331 40.393C63.5545 40.177 63.6009 39.9149 63.5938 39.674C63.5402 37.8464 63.4722 36.0188 63.4436 34.1876C63.4186 32.3564 63.4364 30.5252 63.4364 28.6941ZM75.3384 42.0861C75.1167 44.4875 75.5744 47.2998 75.8033 50.1191C75.9106 51.4474 76.1395 52.8075 76.5722 54.0648C77.3411 56.3069 78.203 57.1676 80.6671 57.242C80.9568 57.249 81.25 57.2455 81.5433 57.2455C83.9215 57.2349 86.2926 57.2738 88.6673 57.033C89.7437 56.9232 90.7487 56.7284 91.7572 56.3388C92.6406 55.9987 93.0661 55.3612 93.3129 54.5678C93.5704 53.7461 93.7814 52.9031 93.9101 52.053C94.2892 49.5383 94.6826 47.0235 94.7041 44.4698C94.7112 43.6056 94.6969 42.7165 94.89 41.8877C95.2513 40.3576 95.0403 38.824 95.1225 37.2938C95.1583 36.5713 94.8757 36.0046 94.4216 35.4627C93.7492 34.6622 92.8587 34.3753 91.8645 34.2903C91.4318 34.2513 90.9847 34.2832 90.5627 34.1911C88.9713 33.844 87.3476 33.8936 85.7812 34.0955C84.2434 34.2938 82.6984 34.2832 81.1642 34.5099C79.7122 34.726 78.3139 35.0306 76.9585 35.5689C75.8212 36.0188 75.3312 36.8617 75.342 38.0412C75.3527 39.2454 75.342 40.4462 75.342 42.0932L75.3384 42.0861Z" fill="white"/>
<path d="M75.3386 42.0858C75.3386 40.4388 75.3458 39.2381 75.3386 38.0338C75.3279 36.8508 75.8179 36.0114 76.9551 35.5615C78.3106 35.0232 79.7089 34.7186 81.1609 34.5025C82.6951 34.2758 84.2437 34.2829 85.7779 34.0881C87.3443 33.8862 88.968 33.8366 90.5594 34.1837C90.9814 34.2758 91.4284 34.2475 91.8612 34.2829C92.8554 34.3679 93.7459 34.6548 94.4182 35.4553C94.8724 35.9972 95.1585 36.5675 95.1192 37.2865C95.0405 38.8166 95.248 40.3502 94.8867 41.8803C94.69 42.7127 94.7079 43.6017 94.7008 44.4624C94.6793 47.0161 94.2859 49.5309 93.9068 52.0457C93.7781 52.8957 93.5671 53.7387 93.3096 54.5604C93.0628 55.3538 92.6372 55.9913 91.7539 56.3314C90.7454 56.721 89.7404 56.9158 88.664 57.0256C86.2893 57.2664 83.9146 57.2275 81.54 57.2381C81.2467 57.2381 80.957 57.2416 80.6638 57.2346C78.1997 57.1637 77.3378 56.2995 76.5689 54.0575C76.1362 52.8001 75.9073 51.44 75.8 50.1118C75.5711 47.2924 75.1169 44.4801 75.3351 42.0787L75.3386 42.0858ZM80.2167 53.9689C80.2668 53.9831 80.3133 54.0008 80.3598 54.0043C83.321 54.1496 86.275 54.0433 89.2219 53.7954C90.023 53.7281 90.3377 53.466 90.5022 52.6655C91.01 50.218 91.3069 47.7351 91.4642 45.2452C91.5644 43.6619 91.7503 42.0964 91.8969 40.5202C91.9899 39.5285 92.0686 38.5297 91.829 37.4813C91.1423 37.3963 90.5308 37.2794 89.9121 37.2546C88.7033 37.2015 87.4874 37.1306 86.2786 37.1908C84.637 37.2723 82.9919 37.4211 81.3611 37.63C80.3705 37.7575 79.337 37.8638 78.4536 38.5863C78.5681 41.1613 78.357 43.7434 78.6324 46.3432C78.8506 48.3975 79.126 50.4341 79.4729 52.4671C79.573 53.0445 79.6767 53.6112 80.2132 53.9689H80.2167Z" fill="#0025FF"/>
<path d="M80.2166 53.9691C79.6801 53.6114 79.5764 53.0446 79.4763 52.4673C79.1294 50.4343 78.8504 48.3976 78.6358 46.3433C78.3605 43.7436 78.5715 41.1615 78.457 38.5865C79.3404 37.864 80.3739 37.7577 81.3646 37.6302C82.9954 37.4212 84.6369 37.2725 86.282 37.191C87.4908 37.1308 88.7031 37.2016 89.9155 37.2548C90.5342 37.2831 91.1493 37.3964 91.8324 37.4814C92.0756 38.5334 91.9969 39.5287 91.9004 40.5204C91.7502 42.093 91.5642 43.6621 91.4676 45.2453C91.3139 47.7318 91.017 50.2147 90.5056 52.6657C90.3411 53.4661 90.0264 53.7282 89.2253 53.7955C86.2748 54.0435 83.3208 54.1497 80.3632 54.0045C80.3167 54.0045 80.2702 53.9833 80.2201 53.9691H80.2166Z" fill="#0025FF"/>
</g>
<defs>
<clipPath id="clip0_266_130">
<rect width="288" height="82.4276" fill="white" transform="translate(0 0.131836)"/>
</clipPath>
</defs>
</svg>
